<svg xmlns="http://www.w3.org/2000/svg" viewBox="0 0 600 600"><path fill="#A97C7C" d="m413.344 111.663.752-.201c.073 1.368.077 2.277.659 3.528.736 1.579.072 4.074.417 5.848.009.959-.073 1.972.216 2.888l-.163.299-1.905-.054c-.59-3.863-.051-8.37.024-12.308Z"/><path fill="#B37577" d="M413.344 111.663c-.506-5.471-.422-12.262.983-17.572l.456.479.855-.322.231.38-.29.294.327.28c1.972 1.742 2.82 4.067 3.143 6.629.054.427.182.795.338 1.193l-.192 1.894-.396-2.27c-.628-.19-.988-.255-1.638-.145-.517.788-.409 1.162-.41 2.087l.293.439c-.002.727.12.991-.293 1.612-.001.833.174 1.64-.293 2.343l-.024.368c-.09 1.187-.851 2.037-.976 3.278-.273 2.71.191 5.52-.286 8.208-.345-1.774.319-4.269-.417-5.848-.582-1.251-.586-2.16-.659-3.528l-.752.201Z"/><path fill="#AE5A5C" d="M415.172 120.838c.477-2.688.013-5.498.286-8.208.125-1.241.886-2.091.976-3.278l.024-.368c.467-.703.292-1.51.293-2.343.413-.621.291-.885.293-1.612l-.293-.439c.001-.925-.107-1.299.41-2.087.65-.11 1.01-.045 1.638.145l.396 2.27.12 13.228c.025 2.023-.214 4.571.269 6.525l.02 2.806-.096 2.942-.283-1.75c.316-1.443.109-3.167.084-4.647l-4.084.003.163-.299c-.289-.916-.207-1.929-.216-2.888Z"/><defs><linearGradient id="a" x1="339.955" x2="334.011" y1="108.609" y2="107.973" gradientUnits="userSpaceOnUse"><stop offset="0" stop-color="#9F6968"/><stop offset="1" stop-color="#C09598"/></linearGradient></defs><path fill="url(#a)" d="M334.852 96.902c.148-1.657.374-3.2.766-4.819l.61 1.542.557-.26.375.63.194 1.513-.398.192c.046 1.05.165 1.857.753 2.752 2.075 3.162 1.328 9.235 1.313 12.885-.015 3.63.114 7.312-.105 10.931-.006.738-.021 1.442.07 2.176-1.335-.457-3.262-.282-4.701-.326l.286-.727-.023-17.071c0-2.962-.381-6.543.303-9.418Z"/><path fill="#ee8789" d="m334.852 96.902.377 5.785.37-.294c0-.835-.081-1.166.293-1.905l.145-.584.428-.132c-.007.69-.128 1.221-.28 1.888-.493 2.159-.232 4.484-.212 6.692l-.026 8.83c.011.799-.185 1.557-.204 2.349-.035 1.408.281 2.2-.502 3.486l-.669.374-.023-17.071c0-2.962-.381-6.543.303-9.418zm165.26 355.375.718-.063c.086.869.071 1.957.544 2.705-3.279 11.065-8.569 19.977-16.441 28.333-3.172 3.367-6.596 6.704-10.438 9.288-1.538-1.377-3.19-3.148-4.837-4.676 1.662-.987 3.373-1.953 4.936-3.092 1.305-.95 2.784-2.441 4.217-3.131 1.758-.846 3.143-2.33 4.52-3.69 2.717-2.681 5.272-5.343 7.375-8.549 2.123-2.33 3.703-5.327 5.205-8.08 1.64-3.008 3.13-5.761 4.201-9.045z"/><path fill="#244BBA" d="m105.895 251.369.22.826c.96.12 1.853-.007 2.806-.119-.348 3.021-.256 6.111-.311 9.149l.061 22.293-.108 63.933-.005 15.326c.003 3.57.296 7.251-.488 10.758l.299.739-.509.16c-.734.144-1.457.251-2.139.571l.174-123.636Z"/><path fill="#f9061d" d="M245.858 89.763c1.704-3.063 3.086-5.496 6.242-7.315 3.965-2.285 7.873-2.961 12.344-1.753 4.117 1.112 7.239 3.18 9.3 6.974.892 1.642 1.282 3.442 2.055 5.136l.933 4.606c.349 2.401.218 4.766.229 7.179.016 3.366.205 6.743-.005 10.107l-.98 8.852c2.645 1.221 14.2.585 17.676.59l34.449.053 1.492-.014 4.693-.06c1.439.044 3.366-.131 4.701.326-.091-.734-.076-1.438-.07-2.176.219-3.619.09-7.301.105-10.931.015-3.65.762-9.723-1.313-12.885-.588-.895-.707-1.701-.753-2.752l.398-.192-.194-1.513-.375-.63-.557.26-.61-1.542 1.825-3.736c.625-1.548 1.689-2.844 2.938-3.925 2.526-2.532 6.817-4.121 10.384-4.133 4.26-.014 7.668.83 10.744 3.94 2.17 2.193 3.004 3.837 3.772 6.781.889 3.405.5 7.644.45 11.145l-.01 14.37c.008 2.445-.176 4.928.033 7.363l40.549.345 5.732-.078 1.285-.184 1.905.054 4.084-.003c.025 1.48.232 3.204-.084 4.647l.283 1.75.096-2.942-.02-2.806c-.483-1.954-.244-4.502-.269-6.525l-.12-13.228.192-1.894c-.156-.398-.284-.766-.338-1.193-.323-2.562-1.171-4.887-3.143-6.629l-.327-.28.29-.293-.231-.381-.855.322-.456-.48c.221-1.227.707-2.386 1.134-3.554.296-.794.739-1.5 1.165-2.228 1.079-1.505 2.083-3.264 3.725-4.203 3.375-2.98 6.95-3.886 11.373-3.634 3.497.2 8.029 1.802 10.358 4.491 1.556 1.796 2.625 3.843 3.176 6.151.734 3.074.51 6.506.545 9.65l.054 16.191c.004 2.196-.199 4.78.25 6.919 4.089.582 8.213.955 12.243 1.898 13.611 3.186 26.469 10.099 35.009 21.421 4.462 5.915 7.869 12.759 9.556 19.996.886 3.799 1.974 7.852 1.901 11.788.625 24.48.296 49.028.353 73.534l-2.291-.079c.548.263.913.329 1.269.835l-.27.466-.98.327c-2.558.968-3.929 1.607-6.709.999-.768-.169-1.628-.119-2.413-.128l-114.087-.484c-.614.408-2.772.494-3.516.293-.866-.234-1.544-.196-2.442-.185l-.254-2.411c-1.011-5.517-3.421-10.224-7.84-13.797a20.839 20.839 0 0 0-10.455-4.468c-7.212-.947-15.1-.364-22.398-.367l-42.354.091-23.754.063c-4.325.005-8.961-.287-13.243.217-5.709.673-10.053 3.319-13.598 7.745-.691 1.062-1.387 2.09-1.912 3.246-1.158 2.403-1.831 4.777-2.572 7.325-1.759-.253-3.327-.09-4.95-.093l-10.673-.155-20.318.257-53.848-.151-30.454-.364-6.186.384c-.953.112-1.846.239-2.806.119l-.22-.826.308-75.819c.518-5.303 1.42-9.866 3.421-14.812.058-2.314 4.509-9.089 5.859-11.056 5.1-8.331 14.332-15.222 23.048-19.288 6.426-2.833 13.295-5.158 20.302-5.863l5.142-.633.699-1.117-.139-.219c-.801-1.626-.763-26.785-.183-29.155.087-1.05.499-2.072.813-3.076 1.038-1.975 1.923-3.693 3.532-5.284 3.419-3.159 7.855-4.952 12.567-4.698 4.043.219 7.682 1.883 10.328 4.934 2.76 3.182 3.715 7.278 4.259 11.356.595 5.186.324 10.604.202 15.82-.09 3.879.14 7.731-.72 11.554 47.095.133 32.417-.207 48.956-.051l.355-.352c-.26-2.632-.092-5.403-.097-8.05l.057-13.685c-.176-.596-.069-1.729-.078-2.376-.032-2.462-.264-5.457.57-7.788.252-.65.507-1.299.762-1.948z"/><path fill="#F5232C" d="M409.014 191.993c-.588-.44-.936-.568-1.2-1.272l-.145-.438c-.38-.633-.293-.832-.293-1.611l-.293-.44a6.376 6.376 0 0 0-.069-2.143l-.224-1.079-.293-.293c.24-.36.474-.617.731-.952.376-.49.691-.899 1.141-1.332.532.57.753.561.775 1.368.027 1.013.374 2.071.448 3.142l-.929-.8-.613.133c-.413 1.843.427 3.965.964 5.717Zm-173.206-1.303-.27-.085-.64-1.347-.377-.15c-.249-.379-.429-.643-.519-1.096-.104-.524-.002-.234-.219-.777l-.137-.321c.179-.634.46-.837.73-1.392l.164-.498.959-.16c.404.53.573.952 1.221 1.17.432.523.672 1.031.959 1.639.584.927.886 1.692 1.117 2.763-.879-.332-1.115-.596-2.013-.249-.315.74-.408 1.405-.503 2.193l-.472-1.69Z"/><path fill="#C84551" d="M235.808 190.69c.031-1.247.053-2.411.344-3.629l.567-.234.96.846c.584.927.886 1.692 1.117 2.763-.879-.332-1.115-.596-2.013-.249-.315.74-.408 1.405-.503 2.193l-.472-1.69Z"/><path fill="#D25A5E" d="m155.522 191.512.492-.486c.872.373 1.607.878 2.389 1.41l2.795 3.928c-.404.113-.887.093-1.076.509-.334.733-.17 1.799-.146 2.595-2.315-2.063-3.37-4.6-4.431-7.428l-.023-.528ZM452.721 191.568l.342.329-.195.246c-.264.361-.36.664-.524 1.07-.26.644-.114.407-.586.879l-.002.366c-.623.558-1.002.865-1.39 1.611l-.366.513c.365.002.67-.069 1.025-.144l1.171 1.243c.546-.527.912-.906 1.32-1.538l.288-.348c.309-.387.433-.657.591-1.117-.243-.566-.486-.856-.879-1.319l.146-.436 1.245 1.17.22-.291c.198.542.226.301.007.764-1.327 2.798-4.413 6.179-7.141 7.729.508-.817.307-1.482.743-2.23l.239-.356-.293-.341.063-.711-.356-.225c-.684.157-1.246.417-1.88.708l.708-1.172c1.645-.483 3.592-3.128 4.432-4.592l1.072-1.808Zm-216.441.812c.095-.788.188-1.453.503-2.193.898-.347 1.134-.083 2.013.249.726 1.25 1.418 2.479 2.351 3.593-.738.036-1.447.007-2.118.356-.064 1.897.363 2.243 1.591 3.69l.365.11.301-.285.138.211a7.037 7.037 0 0 0 1.344 1.506c1.1.948 1.895 2.243 2.716 3.431-4.369-2.443-7.032-6.288-9.204-10.668Zm-37.159 1.897-.928 1.719-.439.147-.22.512c.867.053 1.969.666 2.49.44l.081-.267c.33-.741 1.21-1.402 1.677-2.149l.366-.441.293-.439h.237c-1.637 3.751-4.816 6.763-8.23 8.926l.331-.723-.422-.719-2.763-.032 2.725-2.363 4.802-4.611Z"/><path fill="#C84551" d="M109.624 160.738c.058-2.314 4.509-9.089 5.859-11.056l.184.23c.309.364.192.237.666.527-.214 1.378-1.043 2.439-1.651 3.675l-2.986 6.508c-.696 1.617-1.096 3.253-1.684 4.894l-.256-.197c-.683-.686-.176-3.505-.132-4.581ZM155.522 191.512c-.574-.843-1.454-2.884-1.286-3.866 1.532.412 2.542 1.741 3.622 2.844l.545 1.946c-.782-.532-1.517-1.037-2.389-1.41l-.492.486Zm253.492.481c-.537-1.752-1.377-3.874-.964-5.717l.613-.133.929.8.213.379c.927 1.722 1.18 3.583 2.248 5.323 1.121 1.825 2.853 3.281 3.911 5.082l-.223-.142c-1.13-.736-1.966-1.709-3.103-2.448l1.065 4.487c-2.467-1.841-3.756-4.784-4.689-7.631Z"/><path fill="#F5232C" d="M328.197 179.78c.985.993.816 2.213.745 3.601l-.073.622.999 4.083c.136 2.29 1.48 4.325 2.904 6.052l-.615.174-.243-.314-.522-.606c-.446.459-.661.852-.922 1.434l-.459.143c-.315-.208-.626-.439-.964-.607l-.38-.481c-.297-.037-.55-.134-.834-.23l-.145-.585c-.323-.639-.356-.768-.42-1.484-.046-.52-.299-.345-.458-.713-.696-1.607.282-4.593-.293-6.299-.245-.724-.586-.507-.586-1.465-.4-.599-.293-.767-.293-1.464.36-.541.629-.684 1.169-1.023l.439.583c.26-.509.617-.957.951-1.421Z"/><path fill="#c73510" d="M238.409 186.768c.486.619 1.191 1.068 1.575 1.772.525.965.792 1.99 1.587 2.804 3.115 4.946 6.884 8.758 12.726 10.282 1.009.263 2.077.491 3.042.879-1.591.031-3.786-1.109-5.129-.761l-.55.174c-4.249-1.023-8.117-4.307-10.513-7.889-.933-1.114-1.625-2.343-2.351-3.593-.231-1.071-.533-1.836-1.117-2.763-.466-1.827-2.366-3.636.73-.905z"/><path fill="#EE8789" d="m413.703 199.624-1.065-4.487c1.137.739 1.973 1.712 3.103 2.448l.223.142 5.406 3.701 3.514 1.359c-.838-.014-1.714-.126-2.494.227l-.076.59c1.936 1.676 3.466 1.576 5.504 2.66 1.722.915 4.684.618 6.556.225 1.28-.269 2.985.021 4.318.011l-1.306.457c-5.546 1.641-12.932-.018-17.817-2.719-2.301-1.075-4.061-2.877-5.866-4.614Z"/><path fill="#D25A5E" d="m413.703 199.624-1.065-4.487c1.137.739 1.973 1.712 3.103 2.448l.223.142 5.406 3.701c-.966-.122-1.995-.416-2.885.078.688.868 1.152 1.758 2.235 2.121l.423.572c-.519-.165-.985-.327-1.465-.586l-.109.625c-2.301-1.075-4.061-2.877-5.866-4.614Z"/><defs><linearGradient id="b" x1="436.031" x2="434.767" y1="197.332" y2="207.015" gradientUnits="userSpaceOnUse"><stop offset="0" stop-color="#F9585D"/><stop offset="1" stop-color="#FF9EA0"/></linearGradient></defs><path fill="url(#b)" d="M446.509 199.14c.634-.291 1.196-.551 1.88-.708l.356.225-.063.711.293.341-.239.356c-.436.748-.235 1.413-.743 2.23-2.732 1.578-6.131 3.697-9.301 4.205-1.333.01-3.038-.28-4.318-.011-1.872.393-4.834.69-6.556-.225-2.038-1.084-3.568-.984-5.504-2.66l.076-.59c.78-.353 1.656-.241 2.494-.227 1.466.456 2.244.228 3.677.304 3.021.161 5.13.326 8.038-.695a32.484 32.484 0 0 0 4.864-1.684l.768.082.884.191c1.155.112 2.564-1.138 3.394-1.845Z"/><defs><linearGradient id="c" x1="177.202" x2="176.827" y1="197.89" y2="206.538" gradientUnits="userSpaceOnUse"><stop offset="0" stop-color="#FC525A"/><stop offset="1" stop-color="#FF8D92"/></linearGradient></defs><path fill="url(#c)" d="M159.976 199.468c-.024-.796-.188-1.862.146-2.595.189-.416.672-.396 1.076-.509 2.574 2.769 4.02 3.877 7.867 4.192 2.068 1.016 4.149 1.415 6.311 2.132 1.38.458 2.931.472 4.371.37 1.134.153 2.227-.049 3.358-.074 1.095-.023 2.289.15 3.37-.018 1.728-.269 3.506-1.051 5.119-1.715l2.763.032.422.719-.331.723c-4.988 2.791-10.332 4.702-16.101 4.688-6.957-.018-13.506-3.093-18.371-7.945Z"/><defs><linearGradient id="d" x1="259.676" x2="258.284" y1="194.781" y2="206.342" gradientUnits="userSpaceOnUse"><stop offset="0" stop-color="#F93C45"/><stop offset="1" stop-color="#FF8E92"/></linearGradient></defs><path fill="url(#d)" d="M281.87 190.855c.649.07.315-.017.988.307-.267.27-.389.317-.482.687-.21.841-1.387 2.2-2.151 2.682l-.513.22-1.099 1.099.147.296.441-.148.731-.145c.414.534.805.96 1.025 1.608.33-.33.5-.622.732-1.023l.44-.002c.827-.827 2.092-1.79 2.563-2.857.344-.778.661-1.423.806-2.27l.56.586c-.217 2.614-3.078 4.898-4.987 6.514-2.031 1.719-3.981 3.464-6.271 4.846-4.994 3.014-11.443 4.408-17.214 3.869-4.186-.39-8.399-2.142-12.102-4.076-.821-1.188-1.616-2.483-2.716-3.431a7.037 7.037 0 0 1-1.344-1.506l-.138-.211-.301.285-.365-.11c-1.228-1.447-1.655-1.793-1.591-3.69.671-.349 1.38-.32 2.118-.356 2.396 3.582 6.264 6.866 10.513 7.889l.55-.174c1.343-.348 3.538.792 5.129.761l1.006.091c6.947.566 12.581-1.675 17.786-6.127 1.577-.866 3.901-2.264 4.814-3.846l.925-1.768Z"/><path fill="#F5232C" d="M446.286 164.53c.198-.864.349-1.63.345-2.52l.586.532.218-.237.294-.018.367-.186c.416-.197.57-.366 1.027-.091.793.477 1.241 1.288 2.12 1.764 1.637.885 3.352 2.925 4.177 4.575 1.451 2.9 2.933 6.018 2.933 9.337l.293.293-.003 2.053-1.026-.293c-1.004 1.032-1.573 3.445-2.262 4.831l-.387.878c-.508 1.096-.842 1.945-1.077 3.132-.217 1.094-.673 1.998-1.17 2.988l-1.072 1.808c-.84 1.464-2.787 4.109-4.432 4.592l-.708 1.172c-.83.707-2.239 1.957-3.394 1.845l-.884-.191-.768-.082c1.902-1.188 4.194-2.578 5.756-4.18 2.039-2.089 3.845-5.644 4.755-8.388.856-2.582.45-7.413-.824-9.741l-.805-1.45-.633-1.074c-.742-1.069-1.786-2.088-3.081-2.358l-.45 1.087-.011-7.111.116-2.967Z"/><path fill="#EE8789" d="m446.17 126.058.607 1.028c1.654.095 3.336.002 4.981.165 9.458.936 20.319 4.862 27.978 10.447 2.891 2.108 5.598 4.844 7.983 7.496 1.512 1.681 4.181 4.376 4.913 6.535l.043.33c.139.993.254 1.301.832 2.116.233.327.504.876.444 1.258l-.41.185c-.534.273-.725.506-1.071.975-1.743-.621-1.691-3.306-3.688-3.939-.229-.053-1.267-1.575-1.469-1.834-1.171-1.499-2.359-2.933-3.701-4.284-9.403-9.472-23.99-16.112-37.439-16.101l-.003-4.377Z"/><path fill="#BF323C" d="M109.624 160.738c-.044 1.076-.551 3.895.132 4.581l.256.197-1.591 8.372c-.559 7.572.023 15.079.009 22.655l-.056 39.811.046 8.558c-.001 1.927-.152 4.169.474 6.016 1.153.459 1.962.496 3.194.457 1.019-.033 2.043.004 3.019.307l-6.186.384c-.953.112-1.846.239-2.806.119l-.22-.826.308-75.819c.518-5.303 1.42-9.866 3.421-14.812Z"/><defs><linearGradient id="e" x1="350.859" x2="350.714" y1="193.578" y2="206.56" gradientUnits="userSpaceOnUse"><stop offset="0" stop-color="#FA3C46"/><stop offset="1" stop-color="#FF8C90"/></linearGradient></defs><path fill="url(#e)" d="m368.394 195.246.364-.056c2.188-.683 4.01-4.715 5.001-6.665a13.152 13.152 0 0 1 2.723-.892c.447.537.366 1.416.435 2.11-.631 1.982-1.376 4.653-2.895 6.131-.997.997-1.975 2.109-3.081 2.979-2.264 2.079-4.792 4.34-7.58 5.688-6.071 2.933-13.229 3.816-19.668 1.551-6.135-2.159-11.713-5.683-14.646-11.73.338.168.649.399.964.607l.459-.143c.261-.582.476-.975.922-1.434l.522.606.243.314.615-.174c.649.678 1.225 1.329 1.756 2.103l.615-.201c.517.465.957.746 1.184 1.422l.312.166c.53.318.877.711 1.3 1.154.72 0 .681-.037 1.319.293l1.759.585c1.329.678 2.569 1.114 3.954 1.644l1.004.405c4.412 1.438 10.597 1.125 14.739-.96 2.994-1.507 5.252-3.18 7.68-5.503Z"/><path fill="#F5232C" d="m368.394 195.246.364-.056c2.188-.683 4.01-4.715 5.001-6.665a13.152 13.152 0 0 1 2.723-.892c.447.537.366 1.416.435 2.11-.631 1.982-1.376 4.653-2.895 6.131-.997.997-1.975 2.109-3.081 2.979.126-.434.232-.711.496-1.088l.23-.306c-.199-.956-.492-1.039-1.217-1.658-4.174 4.166-8.495 6.443-14.2 7.69-.585-.198-.999-.401-1.62-.272-1.697.355-4.46.537-6.14.115-.842-.211-.257-.129-1.022-.221-2.552-.304-5.487-.886-7.671-2.353-1.546-1.039-4.592-2.797-5.269-4.519l.615-.201c.517.465.957.746 1.184 1.422l.312.166c.53.318.877.711 1.3 1.154.72 0 .681-.037 1.319.293l1.759.585c1.329.678 2.569 1.114 3.954 1.644l1.004.405c4.412 1.438 10.597 1.125 14.739-.96 2.994-1.507 5.252-3.18 7.68-5.503Z"/><path fill="#3396FD" d="m373.476 252.143 113.82.317c5.096.069 10.512.492 15.582-.029.548.263.913.329 1.269.835l-.27.466-.98.327c-2.558.968-3.929 1.607-6.709.999-.768-.169-1.628-.119-2.413-.128l-114.087-.484c-.614.408-2.772.494-3.516.293-.866-.234-1.544-.196-2.442-.185l-.254-2.411Z"/><defs><linearGradient id="f" x1="488.429" x2="504.219" y1="202.112" y2="203.318" gradientUnits="userSpaceOnUse"><stop offset="0" stop-color="#FF8084"/><stop offset="1" stop-color="#FD2E3A"/></linearGradient></defs><path fill="url(#f)" d="M492.632 151.729c2.467 2.884 4.077 7.226 5.513 10.729 1.033 2.521 1.589 5.48 2.08 8.16 1.94 10.574.778 21.153.793 31.829l.535 25.298c.024 7.462-.419 15.005-.027 22.457l-.403 1.022-1.411.112c-.855-.787-1.177-1.225-1.368-2.383-.288-1.747-.147-3.602-.147-5.368l-.097-8.583-.28-7.701.471-18.951-.484-19.305c-.169-5.448.07-11.152-.903-16.53-1.34-7.408-4.322-13.459-8.122-19.861 1.997.633 1.945 3.318 3.688 3.939.346-.469.537-.702 1.071-.975l.41-.185c.06-.382-.211-.931-.444-1.258-.578-.815-.693-1.123-.832-2.116l-.043-.33Z"/><path fill="#EE8789" d="M365.865 126.226c.213.187.385.435.639.561.574.285 2.984.008 3.808.018l23.292.075c3.312-.013 7.262-.5 10.499.122.773.149 1.005.503 1.297 1.172-.36.865-.974 1.32-1.836 1.653-2.856 1.103-7.265.681-10.362.714l-21.651-.091c-1.717-.041-4.072.27-5.691-.057l.005-4.167ZM190.972 126.9l31.717.1c2.293.057 5.539-.246 7.731.384l.193.643c-.724 1.178-2.076 1.683-3.416 1.973-1.744.378-3.618.583-5.4.641-.732.023-2.2-.173-2.848.049l-27.977.003c-.137-1.25-.037-2.537 0-3.793ZM271.836 123.459l.19.624-.005 2.655c1.39.765 9.266.029 11.36.007l14.049.131 14.815-.027c3.242-.009 6.5-.155 9.728.188.564.06 2.217.028 2.649.258.27.144.369.488.553.732-.284.799-.315.799-1.113 1.178-2.24 1.065-4.705.96-7.133 1.055l-10.777.165-33.556-.099c-.416-.01-.212-.072-.577.267l-.074.705-.057 32.652-.03 3.431-.269.028-.045-8.397c.356-2.123.061-4.781.072-6.975l.007-20.016c.023-2.8-.202-5.801.213-8.562Z"/><path fill="#a10703" d="M334.286 124.118c1.439.044 3.366-.131 4.701.326.584 2.039.275 4.852.285 6.995l.097 16.04v15.556c-.002 2.325-.29 5.152.091 7.425.153.907.374 1.206.885 1.952.483.707 1.626 3.083 1.369 3.878-.116.36-.264.709-.441 1.043l-.382.123c-.974-.601-1.375-1.385-1.947-2.353.016.981-.031 2.005.111 2.975l-.205.524-.04-.37c-.205-2.064.06-4.212-.285-6.234-.408-.168-.739-.474-1.161-.247-2.626 1.404-4.618 5.903-5.253 8.692-.487 2.138-.574 4.677-.485 6.874l.426 1.695c-.802-.628-1.175-.788-2.184-.926l.819-63.155c-.166-.479-.655-.541-1.094-.753z"/><path fill="#AE5A5C" d="M338.987 124.444c.584 2.039.275 4.852.285 6.995l.097 16.04v15.556c-.002 2.325-.29 5.152.091 7.425.153.907.374 1.206.885 1.952.483.707 1.626 3.083 1.369 3.878a6.472 6.472 0 0 1-.441 1.043l-.382.123c-.974-.601-1.375-1.385-1.947-2.353l.043-50.659Z"/><path fill="#a10703" d="m413.29 124.06 6.019-.038c.27 7.984.283 15.993.283 24.047l-.128 27.786-.324-3.736-6.307 8.256 1.23-18.139z"/><defs><linearGradient id="g" x1="164.283" x2="152.791" y1="153.597" y2="153.108" gradientUnits="userSpaceOnUse"><stop offset="0" stop-color="#820100"/><stop offset="1" stop-color="#B20202"/></linearGradient></defs><path fill="url(#g)" d="m158.833 124.531 5.142-.633.126.202c-.019 2.403-.232 4.988.198 7.356l-.363.454.2 4.44.036 20.653.158 19.845-.064 2.022-.042-.281-.308-4.495-4.688 7.316z"/><path fill="#a10703" d="M244.644 123.61c.057.89-.003 2.029.249 2.877l.058 14.4c-.106 6.781-.394 13.649.407 20.392.2 1.68.231 3.167 1.075 4.67.906 1.615.491 3.819 1.258 5.667.79 1.905.712 3.886 2.231 5.497-.316.77-.678 1.165-.416 1.979.16.497.155.557.045 1.071-.171.803.171 1.53.423 2.289l-2.405-1.696c.164-.523-1.891-3.725-2.161-4.535-.234-.705-.286-1.521-.34-2.254l-.171.407c-1.091.148-1.551.016-2.28.957-2.392 3.089-3.26 7.183-2.657 10.99.278 1.762 1.009 3.36 1.611 5.023-.795-.814-1.062-1.839-1.587-2.804-.384-.704-1.089-1.153-1.575-1.772l.119-62.858c1.335-.04 4.354.055 5.761.052z"/><path fill="#AE5A5C" d="M244.644 123.61c.057.89-.003 2.029.249 2.877l.058 14.4c-.106 6.781-.394 13.649.407 20.392.2 1.68.231 3.167 1.075 4.67.906 1.615.491 3.819 1.258 5.667.79 1.905.712 3.886 2.231 5.497-.316.77-.678 1.165-.416 1.979.16.497.155.557.045 1.071-.171.803.171 1.53.423 2.289l-2.405-1.696c.164-.523-1.891-3.725-2.161-4.535-.234-.705-.286-1.521-.34-2.254-.826-3.969-.457-8.76-.489-12.803l-.008-22.841c.001-4.775.16-9.603-.282-14.361l.355-.352Z"/><path fill="#4D0000" d="M331.626 187.317c-.089-2.197-.002-4.736.485-6.874.635-2.789 2.627-7.288 5.253-8.692.422-.227.753.079 1.161.247.345 2.022.08 4.17.285 6.234l.04.37.205-.524c-.142-.97-.095-1.994-.111-2.975.572.968.973 1.752 1.947 2.353.822 2.55 2.406 6.339 4.947 7.549l.924.392c.995.416 1.902 1.014 2.896 1.423 1.54.634 2.406.059 3.955 1.209 2.168.055 3.582.077 5.528-.968.826-.444 1.606-.752 2.472-1.099l.172-.094c.723-.837 1.449-.939 2.497-1.185 1.444-4.138 1.444-7.917 1.536-12.255l.506-.3c.736.645 1.422 1.277 2.277 1.76.95.537 1.323 1.499 2.094 2.22 1.119 2.392 1.79 5.206 1.613 7.876-.086 1.301-.552 2.579-.731 3.877-.376 2.731-2.744 4.828-3.183 7.385-2.428 2.323-4.686 3.996-7.68 5.503-4.142 2.085-10.327 2.398-14.739.96l-1.004-.405c-1.385-.53-2.625-.966-3.954-1.644l-1.759-.585c-.638-.33-.599-.293-1.319-.293-.423-.443-.77-.836-1.3-1.154l-.312-.166c-.227-.676-.667-.957-1.184-1.422l-.615.201c-.531-.774-1.107-1.425-1.756-2.103-1.424-1.727-2.768-3.762-2.904-6.052 1.009.138 1.382.298 2.184.926l-.426-1.695Z"/><path fill="#C73510" d="M329.868 188.086c1.009.138 1.382.298 2.184.926 2.078 4.78 4.645 7.73 8.965 10.648l-1.759-.585c-.638-.33-.599-.293-1.319-.293-.423-.443-.77-.836-1.3-1.154l-.312-.166c-.227-.676-.667-.957-1.184-1.422l-.615.201c-.531-.774-1.107-1.425-1.756-2.103-1.424-1.727-2.768-3.762-2.904-6.052Z"/><path fill="#A10703" d="M342.841 190.291c.674-.467.79-.635 1.596-.638.582.552.836 1.024 1.654 1.102.816.079 1.433.438 2.119.854l6.868.416.437-.277c.606.034.926.066 1.485-.213.577-.288.231-.196.806-.312.442-.089.267-.013.683-.21.379-.178.549-.098.962-.06-2.813 2.057-6.452 3.194-9.939 2.687-.964-.141-1.863-.538-2.778-.848l-.529-.161c-1.327-.614-2.279-1.39-3.364-2.34Z"/><path fill="#AB2117" d="M339.739 185.241c1.23.701 2.504 1.345 3.561 2.295.576 1.278 1.474 2.084 2.801 2.574l.328.114c.537.192.092.024.767.384 1.972 1.054 4.538.617 6.564-.054l.447-.158c1.986-.67 3.599-.639 5.319-2.096 1.324-.472 2.554-1.203 3.729-1.963-.858 1.488-2.16 3.881-3.804 4.616-.413-.038-.583-.118-.962.06-.416.197-.241.121-.683.21-.575.116-.229.024-.806.312-.559.279-.879.247-1.485.213l-.437.277-6.868-.416c-.686-.416-1.303-.775-2.119-.854-.818-.078-1.072-.55-1.654-1.102-.806.003-.922.171-1.596.638-1.488-1.655-2.445-2.899-3.102-5.05Z"/><path fill="#C84551" d="M338.944 175.103c.572.968.973 1.752 1.947 2.353.822 2.55 2.406 6.339 4.947 7.549l.924.392c.995.416 1.902 1.014 2.896 1.423 1.54.634 2.406.059 3.955 1.209 2.168.055 3.582.077 5.528-.968.826-.444 1.606-.752 2.472-1.099l.172-.094c.723-.837 1.449-.939 2.497-1.185l-1.027 1.654c-1.175.76-2.405 1.491-3.729 1.963-1.72 1.457-3.333 1.426-5.319 2.096l-.447.158c-2.026.671-4.592 1.108-6.564.054-.675-.36-.23-.192-.767-.384l-.328-.114c-1.327-.49-2.225-1.296-2.801-2.574-1.057-.95-2.331-1.594-3.561-2.295l-.133-.298c-.903-1.955-.73-4.225-.756-6.341l.205-.524c-.142-.97-.095-1.994-.111-2.975Z"/><path fill="#A9333C" d="M339.055 178.078c.148 1.221.23 1.867 1.021 2.811.872 1.04 1.49 2.844 2.166 4.08l1.058 2.567c-1.057-.95-2.331-1.594-3.561-2.295l-.133-.298c-.903-1.955-.73-4.225-.756-6.341l.205-.524Z"/><path fill="#BF323C" d="M342.242 184.969c1.05.942 2.017 1.711 3.247 2.425l1.149.775c1.843 1.315 4.13.487 5.95 1.657.908-.272 1.601.178 2.261-.115.421-.187.748-.279 1.183-.393.677-.179 1.007-.408 1.536-.856l1.958-.162c-1.72 1.457-3.333 1.426-5.319 2.096l-.447.158c-2.026.671-4.592 1.108-6.564.054-.675-.36-.23-.192-.767-.384l-.328-.114c-1.327-.49-2.225-1.296-2.801-2.574l-1.058-2.567Z"/><path fill="#4D0000" d="M413.13 189.646c-.784-2.744-1.311-6.537-.297-9.271 1.176-3.171 2.788-6.69 5.818-8.49l.489.234.324 3.736.099.169c.184.793.336 1.255.775 1.951.804 1.273 1.246 3.009 2.159 4.158l1.466.483c-.069-1.031-.203-1.521.249-2.467.6-.11.955-.187 1.444-.559-.314-.869-.862-.274-1.478-1.026.391-.616.462-1.034.537-1.756 1.259 1.025 2.53 2.167 4.013 2.855l2.214 2.065 1.414-1.706c.747.472.955.721 1.856.694.702.09.366.146 1.008-.175l1.345.325c.53.115 1.764.542 2.159.921.05.049.401.671.438.697.912.633 3.231.462 4.333.472.654-.674 1.523-1.795 2.336-2.221l.123-.766c.291-1.738.202-3.597.227-5.361l.45-1.087c1.295.27 2.339 1.289 3.081 2.358l.633 1.074.805 1.45c1.274 2.328 1.68 7.159.824 9.741-.91 2.744-2.716 6.299-4.755 8.388-1.562 1.602-3.854 2.992-5.756 4.18a32.484 32.484 0 0 1-4.864 1.684c-3.877.262-7.587.26-11.287-1.017-6.359-2.195-9.311-5.843-12.182-11.733Z"/><path fill="#A10703" d="m427.263 190.616.944.67c1.772.394 3.49.517 5.223 1.109l.337-.096c1.562-.424 2.529-.451 4.005.212l-.508.304c-2.014 1.077-5.922 1.495-8.108.708-.516-.186-1.021-.401-1.568-.498-1.206-.213-1.707-.77-2.583-1.574l2.258-.835Z"/><path fill="#A9333C" d="M419.563 176.024c.184.793.336 1.255.775 1.951.804 1.273 1.246 3.009 2.159 4.158l1.466.483c1.083 1.014 2.085 2.087 3.443 2.712.427.196.754.472 1.129.751.958.712 1.909 1.114 3.008 1.554.733-.117.931-.294 1.598.058 1.639.866 4.675.572 6.488.361l1.721-.203a18.345 18.345 0 0 1 2.894-1.504c-.619 1.049-1.17 2.222-2.119 3.007-1.358 1.34-2.633 2.303-4.353 3.159-1.476-.663-2.443-.636-4.005-.212l-.337.096c-1.733-.592-3.451-.715-5.223-1.109l-.944-.67-2.258.835c-2.484-2.449-4.226-4.328-4.962-7.86-.993-1.705-.835-5.644-.48-7.567Z"/><path fill="#AB2117" d="M420.043 183.591c.961 1.325 1.998 2.125 3.066 3.3 1.323 1.454 2.036 2.51 3.838 3.541l.316.184-2.258.835c-2.484-2.449-4.226-4.328-4.962-7.86Zm18.326 6.646 3.756-.885c-1.358 1.34-2.633 2.303-4.353 3.159-1.476-.663-2.443-.636-4.005-.212l-.337.096c-1.733-.592-3.451-.715-5.223-1.109l4.572-.006c2.172-.202 3.506-.175 5.59-1.043Z"/><path fill="#C84551" d="m422.497 182.133 1.466.483c1.083 1.014 2.085 2.087 3.443 2.712.427.196.754.472 1.129.751.958.712 1.909 1.114 3.008 1.554.733-.117.931-.294 1.598.058 1.639.866 4.675.572 6.488.361-2.815 1.105-7.12 2.049-10.007.907l-.333-.141c-1.641-.635-2.506-1.489-3.941-2.378-1.638-1.015-2.316-2.524-2.851-4.307Z"/><path fill="#D25A5E" d="M424.715 176.808c1.259 1.025 2.53 2.167 4.013 2.855l2.214 2.065 1.414-1.706c.747.472.955.721 1.856.694.702.09.366.146 1.008-.175l1.345.325c.53.115 1.764.542 2.159.921.05.049.401.671.438.697.912.633 3.231.462 4.333.472.654-.674 1.523-1.795 2.336-2.221l-.244 2.164c-.395 1.185-.764 2.334-1.343 3.446-1.03.425-1.953.907-2.894 1.504l-1.721.203c-1.813.211-4.849.505-6.488-.361-.667-.352-.865-.175-1.598-.058-1.099-.44-2.05-.842-3.008-1.554-.375-.279-.702-.555-1.129-.751-1.358-.625-2.36-1.698-3.443-2.712-.069-1.031-.203-1.521.249-2.467.6-.11.955-.187 1.444-.559-.314-.869-.862-.274-1.478-1.026.391-.616.462-1.034.537-1.756Z"/><path fill="#B37577" d="M432.356 180.022c.747.472.955.721 1.856.694.702.09.366.146 1.008-.175l1.345.325c.53.115 1.764.542 2.159.921.05.049.401.671.438.697.912.633 3.231.462 4.333.472.654-.674 1.523-1.795 2.336-2.221l-.244 2.164c-1.402.662-2.174 1.501-3.221 2.609-1.524.289-6.824.672-8.123-.06-.628-.354-1.303-.682-2.014-.853-.907-.219-1.31-.435-2.079-.972.04-1.011.206-1.113.792-1.895l1.414-1.706Z"/><path fill="#4d0000" d="M191.216 171.449c1.066-.083 1.717-.33 2.583.416 3.586 3.091 3.872 6.775 4.033 11.536.12 3.523-.45 6.045-2.312 8.997-1.713 2.262-2.032 4.887-4.258 6.637l3.057-.147-2.725 2.363c-1.613.664-3.391 1.446-5.119 1.715-1.081.168-2.275-.005-3.37.018-1.131.025-2.224.227-3.358.074-1.44.102-2.991.088-4.371-.37-2.162-.717-4.243-1.116-6.311-2.132l-5.73-4.748c-.191-1.383-5.166-11.158-4.666-12.456.71-1.847.021-3.372 1.176-5.197 1.111-1.753 1.53-3.283 3.485-4.27l.586.209.308 4.495.042.281.064-2.022c.843 1.017 1.499 1.854 1.993 3.1.226.57.527 1.071.834 1.601l1.958 1.06c-.062-1.194-.222-2.621.352-3.699l.471.108c.542.182.772.386 1.381.422.845.049 1.709 1.208 2.486 1.691l.421.254 1.39.205c.786.495 1.686.56 2.585 1.096l.404.192c.675.334 1.151.871 1.791 1.241 1.038.599 2.738.803 3.9 1.119.682.407 1.859.119 2.562-.077 1.235-.346 2.028-.901 2.664-2.015l.129-.238 1.328-.348.06-1.568c.36-.839.195-2.249.195-3.148z"/><path fill="#f5232c" d="m192.69 198.182 3.5-.187-3.12 2.999c-1.847.842-3.884 1.835-5.863 2.176-1.238.213-2.605-.006-3.86.023-1.295.032-2.547.288-3.845.094 2.673-.925 5.59-1.118 8.295-2.146 1.717-.652 3.355-1.896 4.893-2.96z"/><path fill="#A10703" d="M166.081 185.852c2.268.886 3.214 3.269 5.281 4.035.561.209.853.554 1.276.966l.8.039c.249.184.441.342.732.475.82.373 2.057.298 2.944.334 2.232.093 4.972.378 7.044-.563.468-.212.771-.343 1.288-.453l2.103-.529c-2.562 2.764-5.083 3.616-8.779 3.756-1.782.068-3.171-.268-4.873-.701-1.396-.354-2.108-.765-3.185-1.711-.5-.44-.914-.614-1.473-.941l-.274-.2c-1.4-1.434-2.142-2.657-2.884-4.507Z"/><path fill="#A9333C" d="M164.33 176.848c.843 1.017 1.499 1.854 1.993 3.1.226.57.527 1.071.834 1.601l1.958 1.06c-.062-1.194-.222-2.621.352-3.699l.471.108c.542.182.772.386 1.381.422.845.049 1.709 1.208 2.486 1.691l.421.254 1.39.205c.786.495 1.686.56 2.585 1.096l.404.192c.675.334 1.151.871 1.791 1.241 1.038.599 2.738.803 3.9 1.119.682.407 1.859.119 2.562-.077 1.235-.346 2.028-.901 2.664-2.015l.129-.238 1.328-.348-.229 1.398-.83 2.784-.821 1.347-1.55 2.067-2.103.529c-.517.11-.82.241-1.288.453-2.072.941-4.812.656-7.044.563-.887-.036-2.124.039-2.944-.334-.291-.133-.483-.291-.732-.475l-.8-.039c-.423-.412-.715-.757-1.276-.966-2.067-.766-3.013-3.149-5.281-4.035-1.021-2.272-1.239-4.07-1.706-6.441l-.109-.541.064-2.022Z"/><path fill="#BF323C" d="M169.275 185.047c2.283 2.066 3.883 3.495 6.919 4.202.565.131.888.361 1.344.705 1.212.106 2.621.313 3.81-.01.9-.245 1.684-.693 2.616-.842l-.145.57-1.592.614c-.643.36-.73.291-1.465.293-.732.486-2.032.292-2.93.293-.596.396-.771.291-1.465.293-.786-.524-1.226-.012-1.904-.293-.338-.14-.662-.828-1.027-1.027-2.187-1.19-3.554-1.651-4.912-3.956l.751-.842Z"/><path fill="#C84551" d="m167.157 181.549 1.958 1.06c.837.911 1.536 1.607 2.62 2.228.458.262.857.569 1.281.881 1.137.837 1.891 1.107 3.239 1.445.358.09.621.204.952.357 1.166.541 2.584.591 3.848.792l.339.067c1.605.302 3.129.011 4.631-.562.361-.138.637-.124 1.017-.136 1.046-.032 1.944-.51 2.878-.939l-.821 1.347c-1.4-.012-2.498-.097-3.796.486l-1.339.527c-.932.149-1.716.597-2.616.842-1.189.323-2.598.116-3.81.01-.456-.344-.779-.574-1.344-.705-3.036-.707-4.636-2.136-6.919-4.202-1.106-1.054-1.611-2.068-2.118-3.498Z"/><path fill="#D25A5E" d="M169.115 182.609c-.062-1.194-.222-2.621.352-3.699l.471.108c.542.182.772.386 1.381.422.845.049 1.709 1.208 2.486 1.691l.421.254 1.39.205c.786.495 1.686.56 2.585 1.096l.404.192c.675.334 1.151.871 1.791 1.241 1.038.599 2.738.803 3.9 1.119.682.407 1.859.119 2.562-.077 1.235-.346 2.028-.901 2.664-2.015l.129-.238 1.328-.348-.229 1.398-.83 2.784c-.934.429-1.832.907-2.878.939-.38.012-.656-.002-1.017.136-1.502.573-3.026.864-4.631.562l-.339-.067c-1.264-.201-2.682-.251-3.848-.792a5.046 5.046 0 0 0-.952-.357c-1.348-.338-2.102-.608-3.239-1.445-.424-.312-.823-.619-1.281-.881-1.084-.621-1.783-1.317-2.62-2.228Z"/><path fill="#B37577" d="m174.226 181.385 1.39.205c.786.495 1.686.56 2.585 1.096l.404.192c.675.334 1.151.871 1.791 1.241 1.038.599 2.738.803 3.9 1.119.682.407 1.859.119 2.562-.077 1.235-.346 2.028-.901 2.664-2.015l.129-.238 1.328-.348-.229 1.398c-1.212.809-2.525 1.988-3.804 2.647-1.462.754-5.854.642-7.409 0-1.447-.597-1.795-1.447-3.538-1.686-.566-.077-.666-.325-1.027-.788-.814-1.045-.984-1.427-.746-2.746Z"/><path fill="#4D0000" d="M271.89 170.302c1.691.349 2.551 1.203 3.87 2.192 2.837 2.127 4.997 7.545 5.437 10.978.593 4.63-2.782 9.275-5.066 12.997-5.205 4.452-10.839 6.693-17.786 6.127l-1.006-.091c-.965-.388-2.033-.616-3.042-.879-5.842-1.524-9.611-5.336-12.726-10.282-.602-1.663-1.333-3.261-1.611-5.023-.603-3.807.265-7.901 2.657-10.99.729-.941 1.189-.809 2.28-.957l.171-.407c.054.733.106 1.549.34 2.254.27.81 2.325 4.012 2.161 4.535l2.405 1.696c-.252-.759-.594-1.486-.423-2.289.11-.514.115-.574-.045-1.071-.262-.814.1-1.209.416-1.979.61.125.8.36 1.222.782.645.645 1.232.954 2.065 1.297l.486.326c.735.216 1.545.432 2.177.877.779.547 1.341 1.267 2.277 1.563-.129-1.873-.626-2.866-1.714-4.374 1.272 1.278 2.371 1.903 4.016 2.608 1.23.333 2.234.933 3.473 1.259.993.261 1.638.455 2.69.469 1.025.173 2.027.209 3.064.242.835-.715 1.533-1.56 2.256-2.385l.06-1.941c-.3-2.395-.078-5.103-.104-7.534Z"/><path fill="#A10703" d="m248.663 188.026.555.1c.698.135 1.123.396 1.71.782.295-.14.594-.307.905-.407l1.537 1.608-.134.531c.524.278.981.477 1.393.914.925.156 1.745.3 2.686.214 2.332-.214 4.762-.024 6.925.9-1.159.201-2.451.299-3.5.824-.731.366-1.947.327-2.714.05l-.747-.375a7.9 7.9 0 0 1-2.177-.041l-.366-.06c-1.986-.273-3.377-2.397-5.12-3.405-.455-.263-.623-.921-.848-1.397l-.105-.238Z"/><path fill="#AB2117" d="m262.099 190.506.711-.337c.398-.219.688-.431 1.155-.502 1.241-.192 2.345-.168 3.368-1 .4-.325.687-.605 1.151-.846 1.002-.523 1.53-.884 2.228-1.79-1.283 3.342-3.349 5.108-6.472 6.637-2.163-.924-4.593-1.114-6.925-.9-.941.086-1.761-.058-2.686-.214-.412-.437-.869-.636-1.393-.914l.134-.531c1.949-.132 3.228.945 5.004.901.638-.015 1.3.239 1.929.146.636-.095 1.172-.509 1.796-.65Z"/><path fill="#A9333C" d="M245.068 173.967c.054.733.106 1.549.34 2.254.27.81 2.325 4.012 2.161 4.535.144 2.059 1.55 3.442 2.921 4.867l.388 1.648.955 1.23c-.311.1-.61.267-.905.407-.587-.386-1.012-.647-1.71-.782l-.555-.1-.56-.641c-.839-1.075-2.616-4.055-2.478-5.429-.763-2.508-.713-4.992-.728-7.582l.171-.407Z"/><path fill="#AB2117" d="M245.625 181.956c.896.52.319.773.778 1.442 1.075 1.57 3.165 2.476 4.475 3.873l.955 1.23c-.311.1-.61.267-.905.407-.587-.386-1.012-.647-1.71-.782l-.555-.1-.56-.641c-.839-1.075-2.616-4.055-2.478-5.429Z"/><path fill="#C84551" d="M249.922 177.113c.61.125.8.36 1.222.782.645.645 1.232.954 2.065 1.297l.486.326c.735.216 1.545.432 2.177.877.779.547 1.341 1.267 2.277 1.563-.129-1.873-.626-2.866-1.714-4.374 1.272 1.278 2.371 1.903 4.016 2.608 1.23.333 2.234.933 3.473 1.259.993.261 1.638.455 2.69.469 1.025.173 2.027.209 3.064.242.835-.715 1.533-1.56 2.256-2.385l.016.823c-.144 1.183-.279 2.186-.755 3.285l-.191 1.069-.292 1.077c-.698.906-1.226 1.267-2.228 1.79-.464.241-.751.521-1.151.846-1.023.832-2.127.808-3.368 1-.467.071-.757.283-1.155.502l-.711.337c-.624.141-1.16.555-1.796.65-.629.093-1.291-.161-1.929-.146-1.776.044-3.055-1.033-5.004-.901l-1.537-1.608-.955-1.23-.388-1.648c-1.371-1.425-2.777-2.808-2.921-4.867l2.405 1.696c-.252-.759-.594-1.486-.423-2.289.11-.514.115-.574-.045-1.071-.262-.814.1-1.209.416-1.979Z"/><path fill="#BF323C" d="m250.49 185.623.253.138c.739.412 1.31.836 1.948 1.389.849.737 1.952 1.488 3.071 1.745 1.491.342 2.401-.316 3.515 1 1.054-.331.977-.932 2.198-.898.408.498.491.887.624 1.509-.624.141-1.16.555-1.796.65-.629.093-1.291-.161-1.929-.146-1.776.044-3.055-1.033-5.004-.901l-1.537-1.608-.955-1.23-.388-1.648Z"/><path fill="#D25A5E" d="M249.922 177.113c.61.125.8.36 1.222.782.645.645 1.232.954 2.065 1.297l.486.326.131.354c.364 1.013.548 1.719.513 2.794.634.368.969.349 1.691.293l.098 1.604c.98.761 2.966.127 3.533.925.935.445 1.574.597 2.612.584l1.389.047.45.171c2.131.577 5.323-1.325 7.083-2.405l-.191 1.069c-1.934 1.063-4.117 2.704-6.307 3.085-.984.171-2.042.113-3.044.212-1.314.131-1.905-.13-2.95-.846-.669-.458-1.764-.367-2.527-.617-.424-.138-.636-.446-1-.674l-.795-.344-.063-.213c-1.891-.794-3.032-1.529-4.344-3.105-.252-.759-.594-1.486-.423-2.289.11-.514.115-.574-.045-1.071-.262-.814.1-1.209.416-1.979Z"/><path fill="#B37577" d="M256.435 177.584c1.272 1.278 2.371 1.903 4.016 2.608 1.23.333 2.234.933 3.473 1.259.993.261 1.638.455 2.69.469 1.025.173 2.027.209 3.064.242.835-.715 1.533-1.56 2.256-2.385l.016.823c-.144 1.183-.279 2.186-.755 3.285-1.76 1.08-4.952 2.982-7.083 2.405l-.45-.171-1.389-.047c-1.038.013-1.677-.139-2.612-.584-.567-.798-2.553-.164-3.533-.925l-.098-1.604c-.722.056-1.057.075-1.691-.293.035-1.075-.149-1.781-.513-2.794l-.131-.354c.735.216 1.545.432 2.177.877.779.547 1.341 1.267 2.277 1.563-.129-1.873-.626-2.866-1.714-4.374Z"/><path fill="#EE8789" d="M256.435 177.584c1.272 1.278 2.371 1.903 4.016 2.608 1.23.333 2.234.933 3.473 1.259.993.261 1.638.455 2.69.469 1.025.173 2.027.209 3.064.242.835-.715 1.533-1.56 2.256-2.385l.016.823-.503 1.321c-.595.211-.29.159-.912.159l-.219.321c-.58.833-.892 1.351-1.866 1.688-1.677.26-3.019.778-4.778.807-1.54-1.218-3.811-1.904-5.523-2.938-.129-1.873-.626-2.866-1.714-4.374Z"/><path fill="#BDAFB1" d="M168.697 85.047c-.249.878-.421 1.83-.975 2.57.039.658.064 1.035.295 1.655.216.58.158.869.059 1.463l.155.24c1.596 2.501.505 5.36 2.394 7.734.193 1.601.724 3.859.411 5.406l-.474-.377-.133.28.248.454c.498.994.293 2.271.372 3.36.029.395-.021.793.001 1.173l.091.46c.095.595.014.925-.142 1.492l.127.332.084.346c.354 1.534.163 3.04.488 4.529.221 1.011.218 2.038.417 3.074l.497 4.021c.269 1.398.072 2.753.382 4.182l.106.898c.312 2.349 1.096 4.68 1.359 7.013.851 7.551 2.821 15.116 5.375 22.306.374 1.052.452 2.347.951 3.329.702 1.379 2.451 3.04 3.522 4.157 1.235 1.288 2.511 1.752 4.244 1.694.998-.033.987-.119 1.734-.798-.022-2.622.312-5.226.073-7.837v-.879l-.015-.597c0-.813.147-1.186.648-1.805l.011 20.515c.034 1.817.204 3.752.037 5.555l-.06 1.568-1.328.348-.129.238c-.636 1.114-1.429 1.669-2.664 2.015-.703.196-1.88.484-2.562.077-1.162-.316-2.862-.52-3.9-1.119-.64-.37-1.116-.907-1.791-1.241l-.404-.192c-.899-.536-1.799-.601-2.585-1.096l-1.39-.205-.421-.254c-.777-.483-1.641-1.642-2.486-1.691-.609-.036-.839-.24-1.381-.422l-.471-.108c-.574 1.078-.414 2.505-.352 3.699l-1.958-1.06c-.307-.53-.608-1.031-.834-1.601-.494-1.246-1.15-2.083-1.993-3.1l-.158-19.845-.036-20.653-.2-4.44.363-.454c-.43-2.368-.217-4.953-.198-7.356l-.126-.202.699-1.117-.139-.219c-.801-1.626-.763-26.785-.183-29.155.087-1.05.499-2.072.813-3.076 1.038-1.975 1.923-3.693 3.532-5.284Z"/><path fill="#F4EFEC" d="M168.697 85.047c-.249.878-.421 1.83-.975 2.57.039.658.064 1.035.295 1.655.216.58.158.869.059 1.463l.155.24c1.596 2.501.505 5.36 2.394 7.734.193 1.601.724 3.859.411 5.406l-.474-.377-.133.28.248.454c.498.994.293 2.271.372 3.36.029.395-.021.793.001 1.173l.091.46c.095.595.014.925-.142 1.492l.127.332a5.45 5.45 0 0 0-.074 1.222l.005.594.099.542c.119.673-.164 1.077-.166 1.701-.006 1.81.624 3.71.016 5.563l.564.572-.151.219c-.512.855-.29 1.157-.283 2.015.004.449-.169.578-.071 1.075.106.536.092.273-.027.857-.111.552-.064.762.098 1.288l-.189.361.147.323c.367 1.108.126 2.706.086 3.878l-.236.19-.145-.438-.441-.44-.053-.399c-.101-.62-.266-.956-.612-1.469-.281-.417-.442-.818-.625-1.284-.92-7.487-.94-15.188-1.454-22.723-.263-3.855-.347-8.36-1.727-11.985a14.389 14.389 0 0 1-.656-2.29l-.066-.33c1.038-1.975 1.923-3.693 3.532-5.284Z"/><path fill="#B39B9C" d="M164.352 93.407c-.007 1.174-.112 2.49.099 3.644.262 1.425.801 2.677.898 4.153l.568 9.907c.086 1.806-.013 3.685.282 5.467.198 1.191-.043 2.604-.009 3.832.104 3.793.752 7.621 1.052 11.426.865 10.997.604 22.077 4.136 32.675.273.819.694 1.524.899 2.373.134.557.289.787.521 1.282l1.793 3.531c.898 1.635 3.348 3.907 3.446 5.757l3.527 3.189.408 1.166-.271.077-.843.609c-.376-.271-.7-.489-.912-.917-.509-1.023-1.067-1.591-1.906-2.369l-.659.005-.433.174-.138-.824c-.608-.396-.825-.685-1.124-1.324-.207-.444-.362-.784-.657-1.187l-.227-.281c-3.109-5.211-6.4-10.968-6.788-17.196-.167-2.679-.765-5.281-.983-7.942-.277-3.361.073-6.793-.235-10.155-.097-1.053-.545-1.997-.611-3.066-.212-3.445.169-8.15-1.391-11.333-.258-.527-.16-.163-.258-.738-.081-.473-.233-.81-.435-1.242l-.126-.202.699-1.117-.139-.219c-.801-1.626-.763-26.785-.183-29.155Z"/><path fill="#A89295" d="M164.674 122.781c.598.599 1.118 1.151 1.336 2.002.274 1.07.181 2.315.259 3.417.072 1.035.432 2.017.513 3.05.126 1.605-.002 3.23.079 4.839.366 7.272.828 14.505 2.033 21.675.17 1.015.166 2.081.405 3.077 1.21 5.038 3.373 9.253 6.043 13.625.545.893 1.14 1.702 1.633 2.628.871 1.635 3.293 3.565 4.726 4.792l-.843.609c-.376-.271-.7-.489-.912-.917-.509-1.023-1.067-1.591-1.906-2.369l-.659.005-.433.174-.138-.824c-.608-.396-.825-.685-1.124-1.324-.207-.444-.362-.784-.657-1.187l-.227-.281c-3.109-5.211-6.4-10.968-6.788-17.196-.167-2.679-.765-5.281-.983-7.942-.277-3.361.073-6.793-.235-10.155-.097-1.053-.545-1.997-.611-3.066-.212-3.445.169-8.15-1.391-11.333-.258-.527-.16-.163-.258-.738-.081-.473-.233-.81-.435-1.242l-.126-.202.699-1.117Z"/><path fill="#B39B9C" d="M164.101 124.1c.202.432.354.769.435 1.242.098.575 0 .211.258.738 1.56 3.183 1.179 7.888 1.391 11.333.066 1.069.514 2.013.611 3.066.308 3.362-.042 6.794.235 10.155.218 2.661.816 5.263.983 7.942.388 6.228 3.679 11.985 6.788 17.196l.227.281c.295.403.45.743.657 1.187.299.639.516.928 1.124 1.324l.138.824.433-.174.659-.005c.839.778 1.397 1.346 1.906 2.369.212.428.536.646.912.917.334.959 1.673 1.83 2.571 2.242l.354.142.513.359c-1.162-.316-2.862-.52-3.9-1.119-.64-.37-1.116-.907-1.791-1.241l-.404-.192c-.899-.536-1.799-.601-2.585-1.096l-1.39-.205-.421-.254c-.777-.483-1.641-1.642-2.486-1.691-.609-.036-.839-.24-1.381-.422l-.471-.108c-.574 1.078-.414 2.505-.352 3.699l-1.958-1.06c-.307-.53-.608-1.031-.834-1.601-.494-1.246-1.15-2.083-1.993-3.1l-.158-19.845-.036-20.653-.2-4.44.363-.454c-.43-2.368-.217-4.953-.198-7.356Z"/><path fill="#A97C7C" d="M164.299 131.456c.311 1.336.318 2.756.411 4.122.128 1.862 1.167 3.394 1.317 5.183.192 2.281-.079 4.703.006 7.011.076 2.076.554 4.118.79 6.178.204 1.784.035 3.602.252 5.38.374 3.059 1.496 6.611 2.558 9.471.15.403.122.233.135.556l.076.245c.188.591.392 1.098.671 1.651.273.54.317.653.263 1.226l-.021.279c-.38-.185-.571-.668-.717-1.04l-1.513-3.563c-1.527-2.982-2.34-7.734-2.549-11.101l-.1.314c-.136.499-.136.921-.175 1.427-.031.402-.024.269-.227.721l-.315-.875-.662-.291c-.096-.457-.181-.903-.327-1.347l-.036-20.653-.2-4.44.363-.454Z"/><path fill="#B37577" d="M164.136 136.35c.849 3.075.135 6.629.425 9.81.12 1.311.575 2.595.827 3.887.446 2.288.66 4.678.59 7.007l-.1.314c-.136.499-.136.921-.175 1.427-.031.402-.024.269-.227.721l-.315-.875-.662-.291c-.096-.457-.181-.903-.327-1.347l-.036-20.653Z"/><defs><linearGradient id="h" x1="163.327" x2="169.38" y1="171.011" y2="168.968" gradientUnits="userSpaceOnUse"><stop offset="0" stop-color="#AD5053"/><stop offset="1" stop-color="#A07776"/></linearGradient></defs><path fill="url(#h)" d="M165.978 157.054c.209 3.367 1.022 8.119 2.549 11.101l1.513 3.563c.146.372.337.855.717 1.04 1.088.915 1.622 2.389 2.081 3.703l-.215.397c-.302.675-.23 1.059-.169 1.771.569.941.882 1.707 1.94 2.137.42.171.647.349.991.636l.231.188-1.39-.205-.421-.254c-.777-.483-1.641-1.642-2.486-1.691-.609-.036-.839-.24-1.381-.422l-.471-.108c-.574 1.078-.414 2.505-.352 3.699l-1.958-1.06c-.307-.53-.608-1.031-.834-1.601-.494-1.246-1.15-2.083-1.993-3.1l-.158-19.845c.146.444.231.89.327 1.347l.662.291.315.875c.203-.452.196-.319.227-.721.039-.506.039-.928.175-1.427l.1-.314Z"/><defs><linearGradient id="i" x1="167.241" x2="185.267" y1="151.152" y2="143.014" gradientUnits="userSpaceOnUse"><stop offset="0" stop-color="#CDC4C4"/><stop offset="1" stop-color="#FFFCF9"/></linearGradient></defs><path fill="url(#i)" d="m171.126 111.289.084.346c.354 1.534.163 3.04.488 4.529.221 1.011.218 2.038.417 3.074l.497 4.021c.269 1.398.072 2.753.382 4.182l.106.898c.312 2.349 1.096 4.68 1.359 7.013.851 7.551 2.821 15.116 5.375 22.306.374 1.052.452 2.347.951 3.329.702 1.379 2.451 3.04 3.522 4.157 1.235 1.288 2.511 1.752 4.244 1.694.998-.033.987-.119 1.734-.798-.022-2.622.312-5.226.073-7.837v-.879l-.015-.597c0-.813.147-1.186.648-1.805l.011 20.515c.034 1.817.204 3.752.037 5.555l-.06 1.568-1.328.348-.129.238c-.636 1.114-1.429 1.669-2.664 2.015-.703.196-1.88.484-2.562.077l-.513-.359-.354-.142c-.898-.412-2.237-1.283-2.571-2.242l.843-.609.271-.077-.408-1.166.387-.022c.814-.098 1.305-.088 2.12.025l-.852-1.592.343-.257-.457-.23c-.374-.258-.402-.51-.889-.659l-.269-.059c-.247-.714-.603-1.001-1.194-1.458-.622-.482-1.254-1.248-1.896-1.632l-.527-.235.282-.281c-2.57-3.367-4.134-6.71-5.59-10.649-2.491-6.742-2.642-13.812-3.086-20.918l-.868-15.017c.183.466.344.867.625 1.284.346.513.511.849.612 1.469l.053.399.441.44.145.438.236-.19c.04-1.172.281-2.77-.086-3.878l-.147-.323.189-.361c-.162-.526-.209-.736-.098-1.288.119-.584.133-.321.027-.857-.098-.497.075-.626.071-1.075-.007-.858-.229-1.16.283-2.015l.151-.219-.564-.572c.608-1.853-.022-3.753-.016-5.563.002-.624.285-1.028.166-1.701l-.099-.542-.005-.594a5.45 5.45 0 0 1 .074-1.222Z"/><path fill="#E3A9AC" d="M191.002 175.437c.034 1.817.204 3.752.037 5.555-.811.716-1.474 1.226-2.47 1.66l-.037-.032c-1.744.138-3.114-1.009-4.461-1.974l-.852-1.592c.703.557 1.288.524 1.982.986l.392.282c.542-.531 1.434-.198 2.183-.353l2.776-.714c.05-1.218.097-2.375.386-3.567l.064-.251Z"/><path fill="#EE8789" d="m181.564 180.643.387-.022c.814-.098 1.305-.088 2.12.025 1.347.965 2.717 2.112 4.461 1.974l.037.032c.996-.434 1.659-.944 2.47-1.66l-.06 1.568-1.328.348-.129.238c-.636 1.114-1.429 1.669-2.664 2.015-.703.196-1.88.484-2.562.077l-.513-.359-.354-.142c-.898-.412-2.237-1.283-2.571-2.242l.843-.609.271-.077-.408-1.166Z"/><path fill="#C7A7A6" d="m181.564 180.643.387-.022c.814-.098 1.305-.088 2.12.025 1.347.965 2.717 2.112 4.461 1.974l.037.032-.483.364c-2.406-.17-3.873-.02-6.114-1.207l-.408-1.166Z"/><defs><linearGradient id="j" x1="418.255" x2="439.249" y1="139.706" y2="131.683" gradientUnits="userSpaceOnUse"><stop offset="0" stop-color="#C6BEBF"/><stop offset="1" stop-color="#fff"/></linearGradient></defs><path fill="url(#j)" d="M416.626 88.308c1.079-1.505 2.083-3.264 3.725-4.203l-.139.544c-.207.75-.578 1.132-1.095 1.693.382.751.063.358.666.76.579.385.762.719 1.125 1.29l.281.427c.233.386.28.6.305 1.037l.674.525.164-.387.47.534.793-.068c.216.58.734 1.428.487 1.99l.196.23c.327.464.281.82.376 1.367l.577 2.38c.147.6.151 1.199.205 1.811.048.54.024.344.248.932l-.073.337c-.101.506-.07.306-.092.853.674.897.422 1.699.56 2.765.23 1.774.363 3.937.797 5.632.4 1.565-.076 3.264.297 4.84.366 1.545.186 3.306.581 4.848.251.983.233 2.109.416 3.137l.08.889c.084 1.036.371 2.038.507 3.066.232 1.763.34 3.583.585 5.365.111.812.252 1.617.445 2.404.127.516.179.957.247 1.478l.634 3.357c.54 3.417 1.027 7.696 2.406 10.86.377.868.499 1.844.872 2.73.757 1.801 1.742 3.691 2.746 5.366 1.002 1.672 1.605 3.024 2.847 4.604.219.279.732 1.086 1.019 1.256.369.219.987.4 1.402.596.548.258 1.549.053 2.153.005.547-.494.601-.656 1.349-.814l.143-6.152-.04-.366c-.08-.814.264-1.468.61-2.182l.111 10.486-.116 2.967.011 7.111c-.025 1.764.064 3.623-.227 5.361l-.123.766c-.813.426-1.682 1.547-2.336 2.221-1.102-.01-3.421.161-4.333-.472-.037-.026-.388-.648-.438-.697-.395-.379-1.629-.806-2.159-.921l-1.345-.325c-.642.321-.306.265-1.008.175-.901.027-1.109-.222-1.856-.694l-1.414 1.706-2.214-2.065c-1.483-.688-2.754-1.83-4.013-2.855-.075.722-.146 1.14-.537 1.756.616.752 1.164.157 1.478 1.026-.489.372-.844.449-1.444.559-.452.946-.318 1.436-.249 2.467l-1.466-.483c-.913-1.149-1.355-2.885-2.159-4.158-.439-.696-.591-1.158-.775-1.951l-.099-.169.128-27.786-.001-17.39-.083-.26.096-2.942-.02-2.806c-.483-1.954-.244-4.502-.269-6.525l-.12-13.228.192-1.894c-.156-.398-.284-.766-.338-1.193-.323-2.562-1.171-4.887-3.143-6.629l-.327-.28.29-.293-.231-.381-.855.322-.456-.48c.221-1.227.707-2.386 1.134-3.554.296-.794.739-1.5 1.165-2.228z"/><path fill="#E3A9AC" d="m446.17 167.497.011 7.111c-.025 1.764.064 3.623-.227 5.361-.587.435-1.146.882-1.847 1.117l-.406.118c-.221.089-.344.239-.583.29-.795.171-2.086-.193-2.786-.583l-.439-.293c-.95-.567-1.741-1.087-2.589-1.807l.393-.547c.479-.076.235-.086.834.124l.483.179.293-.293c.528.229.898.247 1.464.293.478-.477.815-.293 1.465-.293l.806-.72.728-.426c3.101-2.318 1.709-6.08 2.347-9.381l.053-.25Z"/><path fill="#F4EFEC" d="M416.626 88.308c1.079-1.505 2.083-3.264 3.725-4.203l-.139.544c-.207.75-.578 1.132-1.095 1.693.382.751.063.358.666.76.579.385.762.719 1.125 1.29l.281.427c.233.386.28.6.305 1.037l.674.525.164-.387.47.534c.436 1.209.757 2.14.726 3.433l.398.521.073-1.317c.452.399.45.872.471 1.475l-.046 1.076.477.66-.243.746.462.654-.119.578c.123.369.25.531.154.915-.239.955-.034 1.288-.015 2.18l-.086.524.139.843c.078.466.045.935.11 1.396l.086.305-.151.526c-.154.557-.272.723-.123 1.269.175.644-.093.824-.123 1.419l.148.752-.15.712.052.668-.037.527c-.027.592.063.966.234 1.524l-.246.946.323.364.148-1.308.329-.049c.409.865.306 1.668.132 2.579-.1.526.126.883.016 1.422-.099.477-.002.706.147 1.157l-.113.291c-.141.43-.089.612-.054 1.043.028.362-.017.684-.05 1.044-.048.507.05.685.129 1.16.078.469.095.854-.025 1.311-.148.565.048 1.12-.081 1.771-.092.464.015.985.027 1.453l-.01.312c.008.385.162.63.337.96l-.039.337c-.098.94-.016 1.188.204 2.053v2.929h-.293c-.355-.533-.246-.258-.356-.704-.126-.508-.024-.177-.311-.75-.243-.486-.258-.659-.212-1.182l-.293-.293-.145-.438-.559-.793-2.114-27.115c-.813-4.873-1.174-8.996-5.504-12.106Z"/><path fill="#BDAFB1" d="M415.461 90.536c.296-.794.739-1.5 1.165-2.228 4.33 3.11 4.691 7.233 5.504 12.106l2.114 27.115 1.192 17.344 1.109 7.844c.177 1.234.506 2.496.414 3.741-.224 3.046 1.656 4.699 2.396 7.45l-.522-.065c.146.738.622.567.895 1.1.209.407-.175.636.211 1.122.272.342.384.65.529 1.055l-.296.311-.545-.344-.334.345-.242.06c.32.509.761.231.984.806.513 1.325 1.337 2.241 1.713 3.59l.572.95-.428.221-.199.111c-1.833-2.311-2.827-4.776-3.864-7.496-3.399-8.918-3.625-17.97-4.563-27.366-.252-2.516-.207-5.795-1.007-8.185-.532-1.589-.412-3.119-.686-4.732-.208-1.229-.642-2.387-.784-3.635-.529-4.633-.219-9.373-.691-14.051.443-1.038.023-2.696.163-3.848.083-.685.181-1.038.046-1.721-.396-2.006-.432-4.171-1.078-6.11-.189-.567-.098-.172-.217-.766-.274-1.358-1.202-2.748-1.91-3.942-.475-.173-.909-.333-1.346-.594l-.295-.188Z"/><path fill="#C7A7A6" d="M414.327 94.09c.221-1.227.707-2.386 1.134-3.554l.295.188c.437.261.871.421 1.346.594.708 1.194 1.636 2.584 1.91 3.942.119.594.028.199.217.766.646 1.939.682 4.104 1.078 6.11.135.683.037 1.036-.046 1.721-.14 1.152.28 2.81-.163 3.848.472 4.678.162 9.418.691 14.051.142 1.248.576 2.406.784 3.635.274 1.613.154 3.143.686 4.732.8 2.39.755 5.669 1.007 8.185.938 9.396 1.164 18.448 4.563 27.366 1.037 2.72 2.031 5.185 3.864 7.496.152.56.282.818.582 1.296.533-.181.353-.022.606-.393l.172.39c.306.599.509.577.979.974.433.366.661.867.88 1.373 1.079.279 1.708 1.132 2.392 2.001.848.72 1.639 1.24 2.589 1.807l.439.293c.7.39 1.991.754 2.786.583.239-.051.362-.201.583-.29l.406-.118c.701-.235 1.26-.682 1.847-1.117l-.123.766c-.813.426-1.682 1.547-2.336 2.221-1.102-.01-3.421.161-4.333-.472-.037-.026-.388-.648-.438-.697-.395-.379-1.629-.806-2.159-.921l-1.345-.325c-.642.321-.306.265-1.008.175-.901.027-1.109-.222-1.856-.694l-1.414 1.706-2.214-2.065c-1.483-.688-2.754-1.83-4.013-2.855-.075.722-.146 1.14-.537 1.756.616.752 1.164.157 1.478 1.026-.489.372-.844.449-1.444.559-.452.946-.318 1.436-.249 2.467l-1.466-.483c-.913-1.149-1.355-2.885-2.159-4.158-.439-.696-.591-1.158-.775-1.951l-.099-.169.128-27.786-.001-17.39-.083-.26.096-2.942-.02-2.806c-.483-1.954-.244-4.502-.269-6.525l-.12-13.228.192-1.894c-.156-.398-.284-.766-.338-1.193-.323-2.562-1.171-4.887-3.143-6.629l-.327-.28.29-.293-.231-.381-.855.322-.456-.48Z"/><path fill="#B39B9C" d="M419.584 124.671c.544 2.044 1.439 4.372 1.732 6.433.275 1.938.191 3.886.556 5.825.903 2.74.635 5.829.887 8.676.145 1.636.524 3.253.702 4.889.705 6.478 1.438 12.559 4.232 18.572l.32.811c.417 1.103 1.36 2.342 1.919 3.417l.567.729 2.608 3.224c.737 1 1.664 2.126 2.113 3.294-.642.321-.306.265-1.008.175-.901.027-1.109-.222-1.856-.694-3.101-4.326-6.292-8.02-7.939-13.226-.416-1.315-.308-2.723-.754-4.032-1.634-4.787-.912-10.395-2.011-15.337l-.093-.398-.373-5.881c-.032-1.498.098-3.338-.333-4.781l-.138-.431-.155-.731c-.361-1.139-.171-2.204-.36-3.369-.143-.88-.01-1.978-.347-2.783-.211-.506-.21-1.034-.249-1.576l-.02-2.806Z"/><path fill="#A89295" d="M421.872 136.929c.903 2.74.635 5.829.887 8.676.145 1.636.524 3.253.702 4.889.705 6.478 1.438 12.559 4.232 18.572l.32.811c.417 1.103 1.36 2.342 1.919 3.417l.567.729 2.608 3.224c.737 1 1.664 2.126 2.113 3.294-.642.321-.306.265-1.008.175-.458-1.809-2.659-3.303-3.766-4.881-1.021-1.456-1.999-3.094-2.86-4.652-3.513-6.36-4.05-13.559-4.67-20.626-.143-1.628-.545-3.194-.716-4.805-.306-2.883-.231-5.916-.328-8.823Z"/><path fill="#A97C7C" d="M419.604 127.477c.039.542.038 1.07.249 1.576.337.805.204 1.903.347 2.783.189 1.165-.001 2.23.36 3.369l.155.731.138.431c.431 1.443.301 3.283.333 4.781l.373 5.881.093.398c1.099 4.942.377 10.55 2.011 15.337.446 1.309.338 2.717.754 4.032 1.647 5.206 4.838 8.9 7.939 13.226l-1.414 1.706-2.214-2.065c-1.483-.688-2.754-1.83-4.013-2.855-.075.722-.146 1.14-.537 1.756.616.752 1.164.157 1.478 1.026-.489.372-.844.449-1.444.559-.452.946-.318 1.436-.249 2.467l-1.466-.483c-.913-1.149-1.355-2.885-2.159-4.158-.439-.696-.591-1.158-.775-1.951l-.099-.169.128-27.786-.001-17.39-.083-.26.096-2.942Z"/><path fill="#B37577" d="M419.591 130.679c.521 1.767.316 3.815.325 5.648.019 3.772-.33 7.922.116 11.651.097.812.432 1.524.595 2.315.376 1.815.173 3.012 1.203 4.711-.068.569.026.727-.392 1.148.385 1.989.375 4.115 1.039 6.008.655 1.868.526 3.814 1.195 5.713.174.494.268.981.381 1.49.197.888.357 1.036.901 1.731l.583 1.172-.311.177c.882 1.09 1.734 1.901 1.889 3.338.1.922.342 1.127.684 1.905l.073.349c.145.62.512 1.102.856 1.628-1.483-.688-2.754-1.83-4.013-2.855.017-2.038-1.074-3.805-2.05-5.568-.932-1.684-.432-3.357-1.16-5.017-.508-1.159-.628-2.425-1.14-3.562-.544-1.208-.408-2.463-.417-3.764-.02-3.277.545-7.721-.356-10.828l-.001-17.39Z"/><path fill="#AE5A5C" d="M419.592 148.069c.901 3.107.336 7.551.356 10.828.009 1.301-.127 2.556.417 3.764.512 1.137.632 2.403 1.14 3.562.728 1.66.228 3.333 1.16 5.017.976 1.763 2.067 3.53 2.05 5.568-.075.722-.146 1.14-.537 1.756.616.752 1.164.157 1.478 1.026-.489.372-.844.449-1.444.559-.452.946-.318 1.436-.249 2.467l-1.466-.483c-.913-1.149-1.355-2.885-2.159-4.158-.439-.696-.591-1.158-.775-1.951l-.099-.169.128-27.786Z"/><path fill="#F4EFEC" stroke="#fff" stroke-width=".1" d="M420.351 84.105c3.375-2.98 6.95-3.886 11.373-3.633 3.497.2 8.029 1.8 10.358 4.49 1.556 1.796 2.625 3.843 3.176 6.151.734 3.074.51 6.506.545 9.65l.054 16.191c.004 2.196-.199 4.78.25 6.919l.063 2.185.003 4.377.002 23.609c-.346.714-.69 1.368-.61 2.182l.04.366-.143 6.152c-.748.158-.802.32-1.349.814-.604.048-1.605.253-2.153-.005-.415-.196-1.033-.377-1.402-.596-.287-.17-.8-.977-1.019-1.256-1.242-1.58-1.845-2.932-2.847-4.604-1.004-1.675-1.989-3.565-2.746-5.366-.373-.886-.495-1.862-.872-2.73-1.379-3.164-1.866-7.443-2.406-10.86l-.634-3.357c-.068-.521-.12-.962-.247-1.478-.618-2.515-.693-5.203-1.03-7.769-.136-1.028-.423-2.03-.507-3.066l-.08-.889c-.183-1.028-.165-2.154-.416-3.137-.395-1.542-.215-3.303-.581-4.848-.373-1.576.103-3.275-.297-4.84-.434-1.695-.567-3.858-.797-5.632-.138-1.066.114-1.868-.56-2.765.022-.546-.009-.347.092-.853l.073-.337c-.224-.588-.2-.391-.248-.932-.054-.612-.058-1.21-.205-1.811l-.577-2.38c-.095-.546-.049-.903-.376-1.367l-.196-.23c.247-.563-.271-1.41-.487-1.99l-.793.068-.47-.534-.164.387-.674-.525c-.025-.436-.072-.651-.305-1.037l-.281-.428c-.363-.57-.546-.904-1.125-1.29-.603-.401-.284-.008-.666-.76.517-.56.888-.943 1.095-1.692l.139-.544Zm-251.654.942c3.419-3.159 7.855-4.952 12.567-4.697 4.043.218 7.682 1.882 10.328 4.933 2.76 3.182 3.715 7.278 4.259 11.356.595 5.186.324 10.604.202 15.82-.09 3.879.14 7.731-.72 11.554l-4.355-.419-.006 3.306c-.037 1.256-.137 2.543 0 3.793l.019 24.229c-.501.619-.648.992-.648 1.805l.015.597v.879c.239 2.611-.095 5.215-.073 7.837-.747.679-.736.765-1.734.798-1.733.058-3.009-.406-4.244-1.694-1.071-1.117-2.82-2.778-3.522-4.157-.499-.982-.577-2.277-.951-3.329-2.554-7.19-4.524-14.755-5.375-22.306-.263-2.333-1.047-4.664-1.359-7.013l-.106-.898c-.31-1.429-.113-2.784-.382-4.182l-.497-4.021c-.199-1.036-.196-2.063-.417-3.074-.325-1.489-.134-2.995-.488-4.529l-.084-.346-.127-.332c.156-.567.237-.897.142-1.492l-.091-.46c-.022-.38.028-.778-.001-1.173-.079-1.089.126-2.366-.372-3.36l-.248-.454.133-.28.474.377c.313-1.547-.218-3.805-.411-5.406-1.889-2.373-.798-5.233-2.394-7.734l-.155-.24c.099-.594.157-.884-.059-1.463-.231-.62-.256-.997-.295-1.655.554-.74.726-1.692.975-2.57Z"/><path fill="#E3A9AC" d="m190.978 123.594.064-20.988c.13-1.82.305-3.727 1.758-4.978.897-.126 1.793-.205 2.582-.687l.469-.302c.595 5.186.324 10.604.202 15.82-.09 3.879.14 7.731-.72 11.554l-4.355-.419Z"/><defs><linearGradient id="k" x1="336.872" x2="377.527" y1="138.243" y2="121.227" gradientUnits="userSpaceOnUse"><stop offset="0" stop-color="#E1D8D6"/><stop offset="1" stop-color="#fff"/></linearGradient></defs><path fill="url(#k)" d="M340.381 84.422c2.526-2.532 6.817-4.121 10.384-4.133 4.26-.014 7.668.83 10.744 3.94 2.17 2.193 3.004 3.837 3.772 6.781.889 3.405.5 7.644.45 11.145l-.01 14.37c.008 2.445-.176 4.928.033 7.363l.111 2.338-.005 4.167-.137 32.376-.146 9.547.241.112c-.092 4.338-.092 8.117-1.536 12.255-1.048.246-1.774.348-2.497 1.185l-.172.094c-.866.347-1.646.655-2.472 1.099-1.946 1.045-3.36 1.023-5.528.968-1.549-1.15-2.415-.575-3.955-1.209-.994-.409-1.901-1.007-2.896-1.423l-.924-.392c-2.541-1.21-4.125-4.999-4.947-7.549l.382-.123c.182-.35.319-.665.441-1.043.257-.795-.886-3.171-1.369-3.878-.511-.746-.732-1.045-.885-1.952-.381-2.273-.093-5.1-.091-7.425v-15.556l-.097-16.04c-.01-2.143.299-4.956-.285-6.995-.091-.734-.076-1.438-.07-2.176.219-3.619.09-7.301.105-10.931.015-3.65.762-9.723-1.313-12.885-.588-.895-.707-1.701-.753-2.752l.398-.192-.194-1.513-.375-.63-.557.26-.61-1.542 1.825-3.736c.625-1.548 1.689-2.844 2.938-3.925Z"/><path fill="#F4EFEC" d="M340.381 84.422c-.243.692-.427 1.355-.918 1.919l.527.234.528.448-.327.309c-.067.467.198.625.458 1l.266-.4c.582.516.832.853 1.126 1.573 1.065.737 1.294 1.786 1.452 3.073.066.54.051 1.074.013 1.614l.378.145c.472 2.136.654 4.084.804 6.255.06.868.262 1.594.031 2.452l.115.369c.622 2.183.028 5.005.205 7.288l.022 2.385-.026.891c-.032 1.054-.301 2.833.158 3.769-.119.602-.288.909-.08 1.493.204.575.143.352.151 1.028l.556.29-.547.479-.009 1.574.648.453-.043.456c-.033.536.023.862.166 1.368l-.185.36c.693 1.076.514 2.839.692 4.14.07.505.022.797-.042 1.289-.054.406-.013.691.054 1.096.2 1.202-.027-.41-.016.963v3.223l.087.486c.086.534.07.682-.131 1.166l.396.756-.396 1.002c.595 1.085.05 2.156.044 3.328-.007 1.54.289 3.07.203 4.667-.033.615-.049.272.133.83.259.793.101 1.655.033 2.475-1.23-4.069-1.38-9.166-1.835-13.413l-2.195-19.698-.47-12.465c-.426-5.585-.49-12.893-4.964-16.745.625-1.548 1.689-2.844 2.938-3.925Z"/><path fill="#BDAFB1" d="M337.443 88.347c4.474 3.852 4.538 11.16 4.964 16.745l.47 12.465 2.195 19.698c.455 4.247.605 9.344 1.835 13.413l.458 3.191-.435-.31c-.559 1.406.217 2.899-.201 4.218l.557.096c.292.623.35.975.321 1.661l.558.097.318.779-.291.356.136 1.031-.985.74c.298.112.124.082.529.024.155.354.376.686.464 1.062.094.399-.251 1.089-.144 1.476.109.398.709 1.09.954 1.465.005-.511-.001-.955-.074-1.463.92.801.447 1.805 1.039 2.504.243.286.577.479.866.718l.366-.147c.34.544.253.223.148.948-.076.528.01.884.016 1.394l-.091 1.028.316.596-.17.283.517.201.279.624.45-.68.147.266c.461.767.734.62 1.391 1.054.508.336.301.259.453.746l.291.652-.503.362-.388-.591c-.663-.119-.573-.06-1.124.229l-.309.068-.382-.44-1.258-1.029-.296.583c-.373-.373-.244-.198-.522-.668-.294-.498-.052-.295-.695-.502l.016.392c-.771-.082-1.074-.413-1.646-.892-.447-1.417-1.17-2.722-1.843-4.04-.226-.442-.436-.843-.594-1.317l-1.016-3.076-.148-.587c-.317-.612-.29-.497-.293-1.172-.366-.551-.291-.553-.293-1.172-.413-.622-.291-1.033-.293-1.758-.467-.703-.292-1.786-.293-2.637l-.29-.436a25.076 25.076 0 0 0-.586-5.274c-.506-2.196.279-4.982-.443-7.188-.197-.603-.171-1.092-.16-1.721l.009-.322c-.775-1.189.012-3.691-.293-5.127-.448-2.108-.423-4.32-.871-6.442-.264-1.254.291-2.717-.141-3.973l-.155-.425c-.156-.549-.203-1.07-.438-1.61-.332-.763-.657-1.451-.925-2.245.219-3.619.09-7.301.105-10.931.015-3.65.762-9.723-1.313-12.885-.588-.895-.707-1.701-.753-2.752l.398-.192-.194-1.513-.375-.63-.557.26-.61-1.542 1.825-3.736Z"/><path fill="#C7A7A6" d="M337.16 93.995c.513.402 1.153.995 1.331 1.66l.034.588.408.145c.955 3.54 1.357 6.357 1.351 10.032-.001.864.137 2.001-.312 2.754l-.266.431c-.244.579.239 1.21.429 1.725.19.514.159 1.075.148 1.612l.29.437c.003.69-.001.547.293 1.172.247.523.091 1.366.003 1.907l.132.237c.194.428.151.769.132 1.225l-.267.293c.002.753-.134 1.262.293 1.904.002.725-.12 1.136.293 1.758l-.009.333c-.018.832.176 1.152.302 1.864.192 1.086-.01 2.096.237 3.223.272 1.246-.007 2.502.321 3.809.275 1.099-.334 2.382.321 3.369-.022 1.377.04 2.369.293 3.662.189.967-.277 1.925.293 2.783.001 1.022-.259 2.685.293 3.516.001.85-.174 1.934.293 2.636.001.834-.175 1.641.293 2.344.001.725-.12 1.136.293 1.758.001.897-.193 2.198.293 2.93.001.85-.174 1.934.293 2.636.002.694-.104.869.293 1.465.002.619-.073.622.293 1.172.002.619-.073.622.293 1.172.002.75-.048.806.293 1.465l.148.587.293.879.137.44c.223.668.556 1.217.741 1.904.173.639.438 1.169.731 1.756l.221.459c.323.645.754 1.239 1.099 1.886l.731 1.171.211.431c.208.414.398.669.668 1.034a9.652 9.652 0 0 1 1.264 2.347l-1.258-1.029-.296.583c-.373-.373-.244-.198-.522-.668-.294-.498-.052-.295-.695-.502l.016.392c-.771-.082-1.074-.413-1.646-.892-.447-1.417-1.17-2.722-1.843-4.04-.226-.442-.436-.843-.594-1.317l-1.016-3.076-.148-.587c-.317-.612-.29-.497-.293-1.172-.366-.551-.291-.553-.293-1.172-.413-.622-.291-1.033-.293-1.758-.467-.703-.292-1.786-.293-2.637l-.29-.436a25.076 25.076 0 0 0-.586-5.274c-.506-2.196.279-4.982-.443-7.188-.197-.603-.171-1.092-.16-1.721l.009-.322c-.775-1.189.012-3.691-.293-5.127-.448-2.108-.423-4.32-.871-6.442-.264-1.254.291-2.717-.141-3.973l-.155-.425c-.156-.549-.203-1.07-.438-1.61-.332-.763-.657-1.451-.925-2.245.219-3.619.09-7.301.105-10.931.015-3.65.762-9.723-1.313-12.885-.588-.895-.707-1.701-.753-2.752l.398-.192-.194-1.513Z"/><path fill="#B37577" d="M338.917 122.268c.268.794.593 1.482.925 2.245.235.54.282 1.061.438 1.61l.155.425c.432 1.256-.123 2.719.141 3.973.448 2.122.423 4.334.871 6.442.305 1.436-.482 3.938.293 5.127l-.009.322c-.011.629-.037 1.118.16 1.721.722 2.206-.063 4.992.443 7.188.361 1.568.594 3.628.586 5.274l.29.436c.001.851-.174 1.934.293 2.637.002.725-.12 1.136.293 1.758.002.619-.073.621.293 1.172.003.675-.024.56.293 1.172l.148.587 1.016 3.076c.158.474.368.875.594 1.317.673 1.318 1.396 2.623 1.843 4.04.572.479.875.81 1.646.892l-.016-.392c.643.207.401.004.695.502.278.47.149.295.522.668l.296-.583 1.258 1.029.382.44.309-.068c.301.426.562.769.955 1.117.436.387.282.216.588.554l.556.607c.463.341 1.197.745 1.723 1.011l.325.154.06.604.739.574c.31.136.659.162.973.287l.329.136.296-.29 1.758.879-.073-.441c1.078-.427 2.151-.374 3.161-1.091 1.182-.84.943-5.522 1.112-7.063l.241.112c-.092 4.338-.092 8.117-1.536 12.255-1.048.246-1.774.348-2.497 1.185l-.172.094c-.866.347-1.646.655-2.472 1.099-1.946 1.045-3.36 1.023-5.528.968-1.549-1.15-2.415-.575-3.955-1.209-.994-.409-1.901-1.007-2.896-1.423l-.924-.392c-2.541-1.21-4.125-4.999-4.947-7.549l.382-.123c.182-.35.319-.665.441-1.043.257-.795-.886-3.171-1.369-3.878-.511-.746-.732-1.045-.885-1.952-.381-2.273-.093-5.1-.091-7.425v-15.556l-.097-16.04c-.01-2.143.299-4.956-.285-6.995-.091-.734-.076-1.438-.07-2.176Z"/><path fill="#D25A5E" d="m340.891 177.456.382-.123c.295.819.631 1.352 1.027 2.111.363.694.759 1.497 1.055 2.218.39.953 1.213 1.725 1.909 2.472l.381.116c.71.237 1.221.62 1.965.76l.73-.583c.707.193.982.322 1.465.879l.306.005c.747.095 1.275.625 1.744 1.167 1.259.159 1.367 1.174 2.637 1.168l.293-.29 2.93-.002.293-.44c-.554-.554-2.177-.296-3.074-.588l-.367-.087c-.406-.109-.653-.241-1.019-.426-.722-.365-1.377-.418-2.171-.471l-.868-.865.175-.245.393.319c.906.686 2.05.48 3.036 1.052 1.536.89 4.535.71 6.214.354.496-.105.953-.096 1.458-.089l-.172.094c-.866.347-1.646.655-2.472 1.099-1.946 1.045-3.36 1.023-5.528.968-1.549-1.15-2.415-.575-3.955-1.209-.994-.409-1.901-1.007-2.896-1.423l-.924-.392c-2.541-1.21-4.125-4.999-4.947-7.549Z"/><path fill="#A97C7C" d="M338.917 122.268c.268.794.593 1.482.925 2.245.235.54.282 1.061.438 1.61l.155.425c.432 1.256-.123 2.719.141 3.973.448 2.122.423 4.334.871 6.442.305 1.436-.482 3.938.293 5.127l-.009.322c-.011.629-.037 1.118.16 1.721.722 2.206-.063 4.992.443 7.188.361 1.568.594 3.628.586 5.274l.29.436c.001.851-.174 1.934.293 2.637.002.725-.12 1.136.293 1.758.002.619-.073.621.293 1.172.003.675-.024.56.293 1.172l.148.587 1.016 3.076c.158.474.368.875.594 1.317.673 1.318 1.396 2.623 1.843 4.04.008.176.013.487.074.648.322.856.93 1.721 1.32 2.478.315.615-.013 1.123.501 1.843-.248 1.806 1.245 1.974 1.245 3.146-.603-.263-1.081-.637-1.61-1.024l-.438-1.756c-.796-.459-1.349-1.679-1.632-2.527-.194-.583-.588-1.525-.912-2.015l-1.172-1.465.053-.365c.173-.76.25-.283-.087-1.04l-.646-.06c-.341-.479-.658-.853-.807-1.428l-.07-.329-.293-.439.29-.293c.004-.789-.14-.782-.585-1.392l-.413.834c.116.432.191.795.462 1.164l.17.2-.064.514c-.432-.422-.697-.617-.818-1.228-.055-.273-.089-.72-.22-.971-.38-.724-.045-1.203-.293-1.758-.336-.751-.582-.516-.586-1.465-.448-.674-.268-1.209-.289-2.002-.016-.595-.185-.581-.294-1.071-.288-1.292.414-2.934-.204-4.171-.266-.533-.458-.952-.607-1.539l-.072-.3c-.658-2.249.193-4.79-.457-6.999l-.16-.501-.097-16.04c-.01-2.143.299-4.956-.285-6.995-.091-.734-.076-1.438-.07-2.176Z"/><path fill="#F4EFEC" d="M245.858 89.763c1.704-3.063 3.086-5.496 6.242-7.315 3.965-2.285 7.873-2.961 12.344-1.753 4.117 1.112 7.239 3.18 9.3 6.974.892 1.642 1.282 3.442 2.055 5.136l.933 4.606c.349 2.401.218 4.766.229 7.179.016 3.366.205 6.743-.005 10.107l-.98 8.852-.31.127c-.952.664-2.511.327-3.64.407l-.19-.624c-.415 2.761-.19 5.762-.213 8.562l-.007 20.016c-.011 2.194.284 4.852-.072 6.975l.045 8.397.269-.028.032 2.921c.026 2.431-.196 5.139.104 7.534l-.06 1.941c-.723.825-1.421 1.67-2.256 2.385-1.037-.033-2.039-.069-3.064-.242-1.052-.014-1.697-.208-2.69-.469-1.239-.326-2.243-.926-3.473-1.259-1.645-.705-2.744-1.33-4.016-2.608 1.088 1.508 1.585 2.501 1.714 4.374-.936-.296-1.498-1.016-2.277-1.563-.632-.445-1.442-.661-2.177-.877l-.486-.326c-.833-.343-1.42-.652-2.065-1.297-.422-.422-.612-.657-1.222-.782-1.519-1.611-1.441-3.592-2.231-5.497-.767-1.848-.352-4.052-1.258-5.667-.844-1.503-.875-2.99-1.075-4.67-.801-6.743-.513-13.611-.407-20.392l-.058-14.4c-.252-.848-.192-1.987-.249-2.877-.26-2.632-.092-5.403-.097-8.05l.057-13.685c-.176-.596-.069-1.729-.078-2.376-.032-2.462-.264-5.457.57-7.788l.175-.451.587-1.497Z"/><path fill="#C7A7A6" d="M276.732 97.411c.349 2.401.218 4.766.229 7.179.016 3.366.205 6.743-.005 10.107l-.98 8.852-.31.127c-.952.664-2.511.327-3.64.407l-.19-.624c-.285-1.886-.027-4.225-.029-6.15-.006-5.354-.161-10.724.342-16.06.05-1.018.353-2.038.585-3.03l.061-.359c1.172-.181 2.314.704 3.475.97.234-.474.334-.908.462-1.419Z"/><path fill="#E3A9AC" d="M272.734 98.22c1.025.427 1.591.613 1.926 1.832.221.802-.045 1.787-.184 2.592l-2.327-1.395c.05-1.018.353-2.038.585-3.03Z"/><path fill="#EE8789" d="m272.149 101.249 2.327 1.395-.045 12.346c-.028 2.527-.563 6.117.243 8.505l.992.181c-.952.664-2.511.327-3.64.407l-.19-.624c-.285-1.886-.027-4.225-.029-6.15-.006-5.354-.161-10.724.342-16.06Z"/><defs><linearGradient id="l" x1="249.319" x2="263.256" y1="156.612" y2="150.284" gradientUnits="userSpaceOnUse"><stop offset="0" stop-color="#C7BCBC"/><stop offset="1" stop-color="#F4EEEC"/></linearGradient></defs><path fill="url(#l)" d="m248.936 109.754 1.696 3.332c.142.28.218.633.368.943.528 1.094.186 2.728.238 3.942.04.955.378 1.543.276 2.589l.583.436v.733l-.341.05-.242-.783c-.258.817-.245.814.073 1.613l.325-.035.334 1.402-.667.091-.32 1.461.593-.63.418.352.518 4.261 2.573 15.948c.191 1.628.7 3.745 1.231 5.289l1.31 4.493 2.242 6.125c.32.962 1.039 1.725 1.551 2.59 1.428 2.411 2.384 4.343 4.728 6 1.268.896 1.965 1.246 3.441 1.751.461.157.804.144 1.282.119-.005-1.204-.071-2.441.046-3.638.583-5.912-.988 4.36.025-6.176l.327-3 .045 8.397.269-.028.032 2.921c.026 2.431-.196 5.139.104 7.534l-.06 1.941c-.723.825-1.421 1.67-2.256 2.385-1.037-.033-2.039-.069-3.064-.242l-2.148-1.238-2.177-3.424.007-.077c-.755-.79-1.567-1.294-2.435-1.94-.332-.247-.443-.46-.877-.485-.84-.049-.352.158-1.025-.29.099-.684.066-.565-.235-1.114.063-.948.037-1.266-.486-2.112-.591-.358-.637-.345-1.33-.29.339-.658.266-.315.244-1.021-2.448-3.519-3.775-8.348-4.588-12.545-1.335-6.896-1.193-14.323-1.501-21.334z"/><path fill="#C7A7A6" d="m271.589 167.409.269-.028.032 2.921c.026 2.431-.196 5.139.104 7.534-.316.647-.389 1.004-.998 1.431-.864.074-2.022.33-2.793-.108l.353-.281c1.161-.85 1.722-2.45 2.679-3.582.646-.764.317-6.445.354-7.887Z"/><path fill="#E3A9AC" d="M262.289 177.258c.532.438.958.978 1.648 1.05.589.063.361.012.907.256l.146-.443 3.213 1.038c.771.438 1.929.182 2.793.108.609-.427.682-.784.998-1.431l-.06 1.941c-.723.825-1.421 1.67-2.256 2.385-1.037-.033-2.039-.069-3.064-.242l-2.148-1.238-2.177-3.424Z"/><path fill="#b39b9c" d="M244.604 101.875c-.176-.596-.069-1.729-.078-2.376-.032-2.462-.264-5.457.57-7.788l.175-.451.587-1.497c2.75 5.736 2.636 13.748 3.078 19.991l1.127 26.296c.308 7.011.666 15.624 2 22.52 1.97 7.334 4.352 14.345 10.233 18.611l-.007.077 2.177 3.424 2.148 1.238c-1.052-.014-1.697-.208-2.69-.469-1.239-.326-2.243-.926-3.473-1.259-1.645-.705-2.744-1.33-4.016-2.608 1.088 1.508 1.585 2.501 1.714 4.374-.936-.296-1.498-1.016-2.277-1.563-.632-.445-1.442-.661-2.177-.877l-.486-.326c-.833-.343-1.42-.652-2.065-1.297-.422-.422-.612-.657-1.222-.782-1.519-1.611-1.441-3.592-2.231-5.497-.767-1.848-.352-4.052-1.258-5.667-.844-1.503-.875-2.99-1.075-4.67-.801-6.743-.513-13.611-.407-20.392l-.058-14.4c-.252-.848-.192-1.987-.249-2.877-.26-2.632-.092-5.403-.097-8.05z"/><path fill="#C7A7A6" d="m248.133 143.696.072.282c.55 2.325.485 4.765.773 7.133.91 7.5 2.506 14.52 6.692 20.899 1.413 2.153 2.61 4.097 4.728 5.655 1.493 1.099 2.248 2.253 4.068 3.017l2.148 1.238c-1.052-.014-1.697-.208-2.69-.469-1.239-.326-2.243-.926-3.473-1.259-.325-.502-.955-1.602-1.467-1.893l-.453-.174c-.98-3.033-3.569-5.602-5.114-8.431-4.116-7.541-5.086-17.521-5.284-25.998Z"/><path fill="#A89295" d="M244.604 101.875c1.355 6.779-.816 14.537 1.56 21.168.573 1.6.69 3.422.904 5.105.657 5.165.476 10.371 1.065 15.548.198 8.477 1.168 18.457 5.284 25.998 1.545 2.829 4.134 5.398 5.114 8.431l.453.174c.512.291 1.142 1.391 1.467 1.893-1.645-.705-2.744-1.33-4.016-2.608-3.33-3.711-6.317-10.34-7.522-15.133-.267-1.059-.161-2.189-.328-3.269l-1.253-9.621-.964-9.961c-.238-4.169-.355-9.082-1.475-13.113-.252-.848-.192-1.987-.249-2.877-.26-2.632-.092-5.403-.097-8.05l.057-13.685Z"/><path fill="#A97C7C" d="M244.893 126.487c1.12 4.031 1.237 8.944 1.475 13.113l.964 9.961 1.253 9.621c.167 1.08.061 2.21.328 3.269 1.205 4.793 4.192 11.422 7.522 15.133 1.088 1.508 1.585 2.501 1.714 4.374-.936-.296-1.498-1.016-2.277-1.563-.632-.445-1.442-.661-2.177-.877l-.486-.326c-.833-.343-1.42-.652-2.065-1.297-.422-.422-.612-.657-1.222-.782-1.519-1.611-1.441-3.592-2.231-5.497-.767-1.848-.352-4.052-1.258-5.667-.844-1.503-.875-2.99-1.075-4.67-.801-6.743-.513-13.611-.407-20.392l-.058-14.4Z"/><path fill="#B37577" d="M244.951 140.887c.778 4.322.812 8.572 1.217 12.922.123 1.312.552 2.527.693 3.808.205 1.862.083 3.592.604 5.42.562 1.97.997 4.028 1.645 5.967.225.674.641 1.168.869 1.855.614 1.849 1.81 3.163 2.199 5.13.216 1.094.799 2.073 1.031 3.203-.833-.343-1.42-.652-2.065-1.297-.422-.422-.612-.657-1.222-.782-1.519-1.611-1.441-3.592-2.231-5.497-.767-1.848-.352-4.052-1.258-5.667-.844-1.503-.875-2.99-1.075-4.67-.801-6.743-.513-13.611-.407-20.392Z"/><defs><linearGradient id="m" x1="290.702" x2="318.004" y1="510.707" y2="346.528" gradientUnits="userSpaceOnUse"><stop offset="0" stop-color="#FB6C00"/><stop offset="1" stop-color="#FF9C1D"/></linearGradient></defs><path fill="url(#m)" d="M239.834 241.627c3.545-4.426 7.889-7.072 13.598-7.745 4.282-.504 8.918-.212 13.243-.217l23.754-.063 42.354-.091c7.298.003 15.186-.58 22.398.367a20.839 20.839 0 0 1 10.455 4.468c4.419 3.573 6.829 8.28 7.84 13.797l.254 2.411c39.816.133 80.083.206 120.045.376.785.009 1.645-.041 2.413.128 2.78.608 4.151-.031 6.709-.999l.98-.327.27-.466c-.356-.506-.721-.572-1.269-.835l2.291.079-.141 121.57-.074 61.298c-.104 1.999-.479 3.906-.742 5.883-.593 4.458-1.305 9.418-2.838 13.658-.473-.748-.458-1.836-.544-2.705l-.718.063c-1.071 3.284-2.561 6.037-4.201 9.045-1.502 2.753-3.082 5.75-5.205 8.08-2.103 3.206-4.658 5.868-7.375 8.549-1.377 1.36-2.762 2.844-4.52 3.69-1.433.69-2.912 2.181-4.217 3.131-1.563 1.139-3.274 2.105-4.936 3.092-1.108.956-5.722 3.42-6.684 4.532l7.723.46c-.509.643 2.05-.294 1.349.096 3.753-2.028-11.557 8.141-26.531 10.624-9.814 1.626-19.951 1.508-29.874 1.515l-28.232.003-101.032-.055-75.758.018-24.89.034c-4.812 0-9.883.29-14.652-.304-10.905-1.36-21.221-4.102-30.891-9.48-2.94-1.634-5.545-3.594-8.289-5.517-2.222-1.557-4.08-3.597-5.976-5.528-1.871-1.905-4.095-3.989-5.326-6.388l-.388-.354c-1.583-1.499-3.017-3.94-4.127-5.832-2.198-3.745-4.198-7.742-5.526-11.888-.793-2.474-1.226-5.073-1.802-7.603-.619-2.715-1.425-5.431-1.788-8.196-1.234-9.394-.926-18.879-.931-28.332l-.258-22.391-.054-18.273c.682-.32 1.405-.427 2.139-.571l.509-.16-.299-.739c.784-3.507.491-7.188.488-10.758l.005-15.326.108-63.933-.061-22.293c.055-3.038-.037-6.128.311-9.149l6.186-.384 30.454.364 53.848.151 20.318-.257 10.648-.198c1.623.003 3.46-.164 4.975.446.741-2.548 1.414-4.922 2.572-7.325.525-1.156 1.221-2.184 1.912-3.246zm263.044 10.804c.548.263.913.329 1.269.835l-.27.466-.98.327c-2.558.968-3.929 1.607-6.709.999-.768-.169-1.628-.119-2.413-.128-39.955.17-80.238-.854-120.045-.376.072 2.189.126 4.301-.104 6.481l-.058.587c-.342 3.243-1.288 6.394-2.837 9.263-2.057 5.023-5.319 9.888-8.296 14.416l-7.303 11.623c-9.258 15.383-18.105 31.255-25.716 47.524l-2.952 6.459c-.25.56-.833 1.479-.878 2.045-1.072 2.326-1.929 4.944-3.171 7.157l-5.315 13.658 7.106.122 76.405.005 101.374-.068c.98.104 2.062.32 3.043.254l.141-121.57z"/><path fill="#C7A7A6" d="m294.762 429.291 4.066-2.679 1.39.299c-.721 1.965-2.502 3.824-4.071 5.181-.693-1.091-.252-1.789-1.385-2.801Z"/><path fill="#FC862C" d="M460.801 485.881a5.06 5.06 0 0 1 1.95-1.17c1.244-.414 3.298-1.515 4.323-2.335.34-.271.687-.56 1.092-.734.771-.331 1.279-.833 1.995-1.263 3.195-1.919 6.709-4.107 9.588-6.472 1.494-1.227 2.79-2.755 4.133-4.146 1.485-1.538 3.103-2.93 4.523-4.535 1.267-1.431 2.362-3.05 3.58-4.533l.203.147-1.172 1.758c-.35.461-.659.784-.939 1.304l-.233.453-.721 1.169.224.325c-1.801 2.014-3.449 4.291-5.464 6.089-1.396 1.245-3.156 2.05-4.682 3.125-4.493 3.166-8.521 6.258-13.447 8.836-1.603.839-3.106 1.878-4.953 1.982Zm42.764-108.423c.497.916.325 2.046.327 3.061l.008 8.083-.024 34.519.008 7.393c.005 1.088-.136 2.472.096 3.519.152.683.426.949.974 1.345-.104 1.999-.479 3.906-.742 5.883-.593 4.458-1.305 9.418-2.838 13.658-.473-.748-.458-1.836-.544-2.705l-.718.063c-.043-.479-.074-.324.035-.738.727-2.757 2.092-6.422 1.55-9.22l-.106-.522c.292-.482.161-.339.475-.653.945-.945.59-1.577 1.111-2.57.538-1.027.289-2.883.289-4.099l-.002-9.454-.002-30.672.103-16.891Z"/><path fill="#EF6200" d="m489.347 465.849-.162 1.656-.22.146c-.336.24-.591.514-.879.806-.303.308-.578.58-.847.92-.677.857-1.4 1.468-2.01 2.376-.611.911-1.502 1.305-2.05 2.344l-.179.242c-.254.354-.399.712-.568 1.11l-.381.302c-.946.756-1.687 1.75-2.655 2.472-.869.648-1.945 1.021-2.855 1.626-5.341 3.546-10.25 6.073-16.356 8.09-2.283.755-4.429 1.615-6.798 2.106-2.594.538-5.231.711-7.836 1.146-2.887.483-5.6 1.122-8.554 1.286-3.232.181-6.57-.049-9.805-.171l-10.72-.371-.051-.027.132-.376 10.292-.557c3.415-.057 7.203.334 10.558-.163 4.501-.666 8.941-.658 13.441-1.727 3.362-.799 6.626-2.237 9.957-3.204 1.847-.104 3.35-1.143 4.953-1.982 4.926-2.578 8.954-5.67 13.447-8.836 1.526-1.075 3.286-1.88 4.682-3.125 2.015-1.798 3.663-4.075 5.464-6.089Z"/><path fill="#f0a24d" d="M503.298 373.833c.98.104.28.09 1.73.247l-.074 61.298c-.548-.396-.822-.662-.974-1.345-.232-1.047-.091-2.431-.096-3.519l-.008-7.393.024-34.519-.008-8.083c-.002-1.015.17-2.145-.327-3.061z"/><defs><linearGradient id="n" x1="297.015" x2="297.114" y1="496.676" y2="376.619" gradientUnits="userSpaceOnUse"><stop offset="0" stop-color="#AD1F03"/><stop offset="1" stop-color="#DB590B"/></linearGradient></defs><path fill="url(#n)" d="M105.721 375.005c.682-.32 1.405-.427 2.139-.571l-.582.566.251.507 1.388.373c1.075-.188 1.735-.161 2.771.189.789 2.641.636 5.738.523 8.478-.403 2.93-.25 5.957-.296 8.91l-.049 22.119c-.006 5.508-.601 11.175-.381 16.647.049 1.223.398 2.478.7 3.658l.047.246c.305 1.739.264 3.537.315 5.297.121 4.124 2.946 7.627 3.526 11.498.19 1.263 1.192 2.62 1.784 3.77 14.84 28.804 46.436 33.441 50.161 33.683 2.323.193 4.6.562 6.937.605l12.838-.175 10.98.281 8.387.667 16.176.022c.639 0 .901-.195 1.279.35l191.806-.217.051.027 10.72.371c3.235.122 6.573.352 9.805.171 2.954-.164 5.667-.803 8.554-1.286 2.605-.435 5.242-.608 7.836-1.146 2.369-.491 4.515-1.351 6.798-2.106 6.106-2.017 11.015-4.544 16.356-8.09.91-.605 1.986-.978 2.855-1.626 1.815-1.75 3.48-3.398 5.88-4.298 1.014-.201 1.612-1.766 2.518-2.244.57-.3.638-.328 1.056-.88.531-.702 1.095-.973 1.856-1.399-2.103 3.206-4.658 5.868-7.375 8.549-1.377 1.36-2.762 2.844-4.52 3.69-1.433.69-2.912 2.181-4.217 3.131-1.563 1.139-3.274 2.105-4.936 3.092-2.245.83-4.329 1.941-6.543 2.83-7.492 3.007-14.623 4.669-22.663 5.406-6.189.567-12.304.297-18.499.269l-26.104.015-25.279.801-46.157-.098-29.315-.459-16.265.285-46.655-.334-11.864.09c-.97-.008-2.173.211-3.099-.021-.389-.098-.183-.078-.636-.001-3.061.519-6.356-.226-9.449.262-2.051.323-4.366.118-6.458.117l-11.961-.009c-1.641-.002-4.134.393-5.606.004l-.293-.29-.486-.138-.672-.284c-1.39.483-2.767.202-4.199.335-.768.072-1.408.261-2.204.267-22.562 4.823-47.186-11.59-58.942-29.479-.465-1.438-1.645-2.274-2.784-3.226-.218-.753-.312-1.234-.879-1.801.133.691.182 1.076.59 1.66.591.846.61 1.829 1.181 2.685.357.536.231.216.432.818.938 2.816 5.492 7.83 5.721 10.017l.025.289-.388-.354c-1.583-1.499-3.017-3.94-4.127-5.832-2.198-3.745-4.198-7.742-5.526-11.888-.793-2.474-1.226-5.073-1.802-7.603-.619-2.715-1.425-5.431-1.788-8.196-1.234-9.394-.926-18.879-.931-28.332l-.258-22.391z"/><path fill="#AB2117" d="M136.054 484.012c2.013.963 3.902 2.26 5.903 3.305 1.43.746 2.99 1.195 4.455 1.877 3.318 1.544 6.453 3.181 9.941 4.341 3.149 1.047 6.58.969 9.729 2.11 2.759 1 6.571.3 9.517.789.909.151 1.766-.163 2.672-.2 1.119-.044 2.263.031 3.383.075-1.39.483-2.767.202-4.199.335-.768.072-1.408.261-2.204.267l-.29.05c-.522.113-.92.263-1.461.181-1.013-.154-2.09.036-3.081-.199-.531-.126-.688-.254-1.25-.114-1.415.351-3.196-.836-4.669-.954-.957-.077-1.983-.395-2.928-.614l-3.022-.499c-2.384-.559-4.82-1.22-7.083-2.204-1.517-.659-2.861-1.703-4.405-2.325a2.502 2.502 0 0 0-1.37-.185c-1.101.138-3.485-1.432-4.466-2.088-1.833-1.224-3.78-2.198-5.172-3.948Z"/><path fill="#C73510" d="m112.185 435.881.047.246c.305 1.739.264 3.537.315 5.297.121 4.124 2.946 7.627 3.526 11.498.19 1.263 1.192 2.62 1.784 3.77 1.559 3.026 3.377 7.717 6.102 9.841l.27.178.156.173c.62 1.013 1.406 1.813 2.087 2.771 2.015 2.833 5.242 5.157 7.777 7.52.75.699 1.318 1.605 2.025 2.352l-.864-.231c-3.287-.963-5.926-4.014-8.325-6.337-1.003-.971-2.267-1.85-2.937-3.095-.733-1.361-2.218-2.186-2.417-3.751l.292-.441-.689-1.003c-.687-.755-1.192-1.252-1.526-2.255-.176-.53-.035-.285-.357-.714-.247-.329-.204-.191-.299-.574l-.057-.286-.201-.486c-.637-2.23-2.418-4.776-3.608-6.838-.441-.765-.625-1.669-1.073-2.389l-.158-.228c.095-.638.051-1.039-.234-1.631-.244-.509-.487-.765-.552-1.345-.052-.473-.115-.854-.327-1.292-.298-.619-.492-.777-.552-1.5l-.034-.551c-.574-2.741-.358-5.866-.171-8.699Z"/><path fill="#c73510" d="M105.721 375.005c.682-.32 1.405-.427 2.139-.571l-.582.566.251.507 1.388.373c-.053.555-.072 1.086-.271 1.61-.239.626-.131 1.497-.138 2.165l-.071 6.259-.228 26.986c-.007 5.233-.285 10.656.179 15.86.336 3.759-.017 7.59.402 11.352.937 6.657 3.837 12.443 6.409 18.606 1.94 4.471 4.909 8.603 7.675 12.591 1.8 2.596 4.467 4.823 6.814 6.915l6.366 5.788c1.392 1.75 3.339 2.724 5.172 3.948.981.656 3.365 2.226 4.466 2.088.465-.068.94-.004 1.37.185 1.544.622 2.888 1.666 4.405 2.325 4.162 1.612 8.61 2.685 13.033 3.317 1.473.118 3.254 1.305 4.669.954.562-.14.719-.012 1.25.114.991.235 2.068.045 3.081.199.541.082.939-.068 1.461-.181l.29-.05.337 1.083c-.322.507-.458.574-.913.973l-.48.587-.48-.123-.404.111c-.714.179-2.331.097-3.08-.044l-.602-.081-.44-.111c-.509-.189-.786-.427-1.353-.49l-.404-.034c-1.391-.287-3.04 0-4.328-.429-.317-.106-.609-.303-.947-.357-8.767-1.415-8.595-2.549-10.151-2.713-.729-.077-1.088-.177-1.705-.606-.858-.596-1.842-1.028-2.791-1.461-.638-.291-.365-.136-.86-.426-.451-.264-.864-.566-1.376-.693l-.254-.053c-1.342-.671.273-.014-.779-.434-2.173-.866-4.311-2.543-6.498-3.097l-.211-.281-.716-.29-.439-.293-1.172-.586c-1.647-.807-2.72-2.82-4.181-3.402-.909-.363-1.304-.564-1.826-1.433l-.585-.145c-.549-.691-1.592-1.416-1.885-2.222-.193-.5-.566-.91-1.046-1.149-.68-.321-.895-.872-1.465-1.171-2.099-1.103-3.896-3.267-4.979-5.376-2.168-2.603-3.026-5.742-5.713-7.959-.218-.753-.312-1.234-.879-1.801.133.691.182 1.076.59 1.66.591.846.61 1.829 1.181 2.685.357.536.231.216.432.818.205.617 3.17 5.752 3.789 6.411.293.312.516.558.759.922l.278.441c.573.843.784 1.182.895 2.243l.025.289-.388-.354c-1.583-1.499-3.017-3.94-4.127-5.832-2.198-3.745-4.198-7.742-5.526-11.888-.793-2.474-1.226-5.073-1.802-7.603-.619-2.715-1.425-5.431-1.788-8.196-1.234-9.394-.926-18.879-.931-28.332l-.258-22.391z"/><defs><linearGradient id="o" x1="291.727" x2="293.404" y1="508.82" y2="470.151" gradientUnits="userSpaceOnUse"><stop offset="0" stop-color="#9B0D00"/><stop offset="1" stop-color="#D16956"/></linearGradient></defs><path fill="url(#o)" d="m120.595 477.874-.025-.289c-.111-1.061-.322-1.4-.895-2.243l-.278-.441c-.243-.364-.466-.61-.759-.922-1.04-1.107-1.406-2.371-2.186-3.618-.675-1.079-1.182-1.529-1.603-2.793-.201-.602-.075-.282-.432-.818-.571-.856-.59-1.839-1.181-2.685-.408-.584-.457-.969-.59-1.66.567.567.661 1.048.879 1.801 1.139.952 2.319 1.788 2.784 3.226.191.592.631 1.067.879 1.611l.099.422c.27 1.011 1.445 1.714 1.951 2.7 1.083 2.109 2.88 4.273 4.979 5.376.57.299.785.85 1.465 1.171.471.223.875.678 1.046 1.149.293.806 1.336 1.531 1.885 2.222l.585.145c.522.869.917 1.07 1.826 1.433 1.461.582 2.534 2.595 4.181 3.402l1.172.586.439.293.716.29.211.281c2.187.554 4.325 2.231 6.498 3.097 1.052.42-.563-.237.779.434l.254.053c.512.127.925.429 1.376.693.495.29.222.135.86.426.949.433 1.933.865 2.791 1.461.617.429.976.529 1.705.606 1.005.106 2.098.863 3.121 1.155l1.318.452c.47.157.847.139 1.318.227l.587.2c.459.156.822.192 1.308.235.816.072 1.675.311 2.499.444.338.054.63.251.947.357 27.285-4.472 37.675-2.676 57.21-1.684l11.864-.09 46.655.334 16.265-.285 29.315.459 46.157.098 25.279-.801 26.104-.015c6.195.028 12.31.298 18.499-.269 8.04-.737 15.171-2.399 22.663-5.406 2.214-.889 4.298-2 6.543-2.83l4.964 4.587c-8.124 5.885-19.258 9.492-29.107 11.125-9.814 1.626-19.951 1.508-29.874 1.515l-28.232.003-101.032-.055-75.758.018-24.89.034c-4.812 0-9.883.29-14.652-.304-10.905-1.36-21.221-4.102-30.891-9.48-2.94-1.634-5.545-3.594-8.289-5.517-2.222-1.557-4.08-3.597-5.976-5.528-1.871-1.905-4.095-3.989-5.326-6.388z"/><path fill="#AB2117" d="M348.377 499.642c4.831.493 9.572.633 14.421.628 1.611-.002 3.565.2 5.137-.078l1.206-.238c1.107.736 2.836-.009 4.101.293.346.083.677.225 1.026.293l.293-.293c1.281.846 3.313-.151 4.687.293.374.121.649.469 1.025.583 1.162.351 1.84-.31 3.065.534-.309.165-.579.448-.926.495-.059.008-.424-.276-.527-.297-.837-.165-1.809.275-2.676-.041-.722-.263-.287-.259-.888-.217-.809.057-1.574.038-2.369-.145-.357-.082-.867-.263-1.239-.176-1.357.32-1.973.48-3.408.136l-.551-.14-.836.255c-.931.166-1.795.029-2.558-.528l-.417-.315c-1.259-.016-2.667-.156-3.895.112-1.219.265-3.589.48-4.746.053-1.634-.603-3.697.18-5.404-.303-.728-.206-1.351-.292-2.114-.348.16.378-.055.688-.174 1.07-1.31.403-3.422.256-4.725-.127-.893-.262-1.865-.622-2.783-.341-.921.283-1.309.378-2.16-.043-1.705.811-4.457.198-6.298.076l-11.656-.047c-1.255.008-3.584.384-4.693-.073-1.229-.506-4.224-.116-5.637-.113l-16.172-.031.145-.178 16.137.02c1.059 0 1.831-.367 2.873-.228l1.206.134c.75-.481 3.068-.592 3.954-.363.492.127.802.239 1.318.293.918-.917 1.074.092 1.978-.148.946-.251 1.447-.411 2.471-.213.445.086.179.073.641.06 1.57-.045 3.143.191 4.715.157 1.396-.03 2.783-.398 4.179-.38 3.953.049 8.408 1.171 12.274-.081Zm-210.634-11.129c2.187.554 4.325 2.231 6.498 3.097 1.052.42-.563-.237.779.434l.254.053c.512.127.925.429 1.376.693.495.29.222.135.86.426.949.433 1.933.865 2.791 1.461.617.429.976.529 1.705.606 1.005.106 2.098.863 3.121 1.155l1.318.452c.47.157.847.139 1.318.227l.587.2c.459.156.822.192 1.308.235.816.072 1.675.311 2.499.444.338.054.63.251.947.357 1.288.429 2.937.142 4.328.429l.404.034c.567.063.844.301 1.353.49l.44.111v.468c1.04-.047 2.164-.173 3.194-.012l.465.078h.442c1.147.191 3.687.44 4.834.147.671-.172.906-.434 1.63-.193.495.165.929.169 1.447.193 1.514-1.01 4.524.428 6.152-.586l.439-.293c1.248 0 2.062-.226 3.077.586.553-.184.624-.11 1.171 0 .715-.477 1.545-.293 2.395-.293h6.98l.586.586c.49.389 8.335.535 9.229.293.86-.234 1.671-.508 2.563-.151 1.357.543 4.432.17 5.994.171l16.492-.02c.693-.463 1.416-.3 2.24-.304l6.185-.008c.586.014.956.314 1.564.33 9.632.245 19.359-.452 28.974.055l-.145.153-62.888.06-9.255.047c-1.271.006-3.242.488-4.395.033.685-.033 1.307-.06 1.978-.22-1.254-.024-3.153-.286-4.324.098-1.098.36-1.321.164-2.409.178l-8.624.097c-1.253.005-2.611-.199-3.841-.048-2.153.264-5.877.684-7.914.148-.456-.12-.317-.127-.735-.111-1.359.052-2.292-.241-3.63.324l-.311.14c-1.704-.27-3.41-.291-5.118-.499-3.064-.374-6.379-1.157-9.319-2.084-1.867-.589-3.507-1.693-5.336-2.304l-2.051-.827.291-.239c.603.27 1.108.243 1.752.233l.276-.006c-1.319-.429-3.12-1.292-4.355-1.971l-.894-.51-.702-.207c-1.813-.775-5.307-2.64-5.99-4.436Z"/><defs><linearGradient id="p" x1="403.932" x2="437.954" y1="391.189" y2="242.213" gradientUnits="userSpaceOnUse"><stop offset="0" stop-color="#0030AA"/><stop offset="1" stop-color="#0161EB"/></linearGradient></defs><path fill="url(#p)" d="m502.878 252.431 2.291.079-.141 121.57c-.981.066-2.063-.15-3.043-.254l-101.374.068-76.405-.005-7.106-.122 5.315-13.658c1.242-2.213 2.099-4.831 3.171-7.157.045-.566.628-1.485.878-2.045l2.952-6.459c7.611-16.269 16.458-32.141 25.716-47.524l7.303-11.623c2.977-4.528 6.239-9.393 8.296-14.416 1.549-2.869 2.495-6.02 2.837-9.263l.058-.587c.23-2.18.176-4.292.104-6.481 6.075-.235.407-.124 5.958-.108l114.087.484c.785.009 1.645-.041 2.413.128 2.78.608 4.151-.031 6.709-.999l.98-.327.27-.466c-.356-.506-.721-.572-1.269-.835zm0 0c.548.263.913.329 1.269.835l-.27.466-.98.327c-2.558.968-3.929 1.607-6.709.999-.768-.169-1.628-.119-2.413-.128l2.371.685.062.298c.144.576.067.307.359.848.88 1.636.233 9.325.328 11.632l.796 13.116-.088 20.586.403 10.445c-.741 1.698.975 4.209.972 6.069l-1.382 10.953c3.005 1.682.307 3.245-.279 3.836 0 1.146 3.699 5.434 3.115 6.312-.001 1.407-3.328 1.241-3.439 2.641 3.408 2.799 3.412 5.308 2.77 5.955l-1.19 6.455c-.157.847 1.176 4.318 1.659 5.043l-.949 10.09c2.76 2.515-.291 1.87 1.458 3.251l1.244.681c.98.104 2.062.32 3.043.254l.141-121.57z"/><path fill="#07268B" d="M322.415 360.109c1.242-2.213 2.099-4.831 3.171-7.157l-.044.417c-.194 1.684-.817 3.056-1.216 4.68-.806 3.279-1.469 6.394-2.613 9.609-.536 1.506-.999 3.017-2.036 4.266.231.697.395 1.053 1.135 1.349.97.387 2.992.134 4.067.135l11.389.001 56.167-.02.436-.29h105.64l2.23.046 1.244.681-101.374.068-76.405-.005-7.106-.122 5.315-13.658Z"/><path fill="#244bba" d="m502.878 252.431 2.291.079-.141 121.57c-.981.066-2.063-.15-3.043-.254l-1.244-.681-2.23-.046c-1.113-2.352-.17-.466-1.489-3.467l-.291-15.433c0-11.913.172-12.983.172-20.801.677-9.095.686-10.08.68-14.983.003-1.86-.318-4.177.423-5.875l-.403-10.445.088-20.586-.796-13.116c-.095-2.307.552-9.996-.328-11.632-.292-.541-.215-.272-.359-.848l-.062-.298-2.371-.685c.785.009 1.645-.041 2.413.128 2.78.608 4.151-.031 6.709-.999l.98-.327.27-.466c-.356-.506-.721-.572-1.269-.835zm0 0c.548.263.913.329 1.269.835l-.27.466c.31 2.902.148 5.882.126 8.797l-.066 13.488.01 45.469-.015 34.724.305 16.721-1.268.414-.984.481c.98.104 2.062.32 3.043.254l.141-121.57z"/><path fill="#244BBA" fill-opacity=".988" d="m502.878 252.431 2.291.079-.141 121.57c-.981.066-2.063-.15-3.043-.254l-1.244-.681c.925-.009 1.621-.349 2.469-.346l.55.007c.25-1.895.132-3.902.142-5.817l.03-10.779.015-34.724-.01-45.469.066-13.488c.022-2.915.184-5.895-.126-8.797l.27-.466c-.356-.506-.721-.572-1.269-.835Z"/><path fill="#106FF6" d="M493.775 254.93c.785.009 1.645-.041 2.413.128 2.78.608 4.151-.031 6.709-.999a14.854 14.854 0 0 1-.804 1.69c-.372.669-.409 1.459-.428 2.21l-.121 42.38-.575 34.786.516 16.221c-.028 5.267-1.014 10.366-.652 15.597l-.059.46.056 2.324-.29.293-.003 1.907-1.761-.003c-.37-.733-.291-.277-.164-.856.126-.577-.048-.788-.188-1.341-.577-2.285-.087-5.189-.224-7.581-.268-4.715-.72-9.464-.601-14.189l.57-10.198.136-14.804c-.007-3.427.112-7.019-.299-10.415l-.403-10.445.088-20.586-.796-13.116c-.095-2.307.552-9.996-.328-11.632-.292-.541-.215-.272-.359-.848l-.062-.298-2.371-.685Z"/><defs><linearGradient id="q" x1="268.543" x2="109.557" y1="379.103" y2="256.473" gradientUnits="userSpaceOnUse"><stop offset="0" stop-color="#012DA1"/><stop offset="1" stop-color="#004CD2"/></linearGradient></defs><path fill="url(#q)" d="M239.834 241.627c3.545-4.426 7.889-7.072 13.598-7.745 4.282-.504 8.918-.212 13.243-.217l23.754-.063 42.354-.091c7.298.003 15.186-.58 22.398.367a20.839 20.839 0 0 1 10.455 4.468c4.419 3.573 6.829 8.28 7.84 13.797l.254 2.411c.072 2.189.126 4.301-.104 6.481l-.058.587c-.342 3.243-1.288 6.394-2.837 9.263-2.057 5.023-5.319 9.888-8.296 14.416l-7.303 11.623c-9.258 15.383-18.105 31.255-25.716 47.524l-2.952 6.459c-.25.56-.833 1.479-.878 2.045-1.072 2.326-1.929 4.944-3.171 7.157l-5.315 13.658c-1.628 2.913-2.598 6.527-3.695 9.686l-7.521 25.266c-1.697 6.201-3.103 12.266-5.666 18.192l-1.39-.299-4.066 2.679c1.133 1.012.692 1.71 1.385 2.801l.044.24c-1.514 1.09-3.077 2.219-4.756 3.043-1.484.548-2.952 1.134-4.495 1.494-4.482.09-8.898.021-12.885-2.276-5.4-3.112-8.617-7.955-10.2-13.872.199-.642.063-1.814.081-2.508.054-2.069-.042-4.524.521-6.523.173-3.199 1.314-6.491 2.17-9.564.956-3.433 1.786-6.86 2.964-10.23l5.146-16.667.47-1.309-14.627-.051-.816-.073-41.688.012-63.525.029-28.317.024c-5.896.009-12.003-.253-17.865.413l-.299-.739c.784-3.507.491-7.188.488-10.758.004-26.42.068-52.84.113-79.259l-.061-22.293c.055-3.038-.037-6.128.311-9.149l6.186-.384 30.454.364 53.848.151 20.318-.257 11.135-.183c1.623.003 2.973-.179 4.488.431.741-2.548 1.414-4.922 2.572-7.325.525-1.156 1.221-2.184 1.912-3.246z"/><path fill="#106FF6" d="m113.831 252.621 121.469-.045-.007 2.258c-.785.207-1.555.308-2.366.329l-25.469-.454-34.869-.071-31.327.038c-7.437.04-14.962.302-22.389-.213-1.577-.109-3.878-.746-5.042-1.842Z"/><path fill="#07268b" d="m115.107 251.692 30.454.364 53.848.151 20.318-.257c8.539-.058 10.136-.17 15.975-.239l-.402.865-121.469.045-2.438.048c-.204 1.143.151 2.653.253 3.825l.424 6.749.78 27.732.065 41.984.524 18.032-.316 22.09 57.588.078 38.172.227c7.197-.004 48.541-.63 50.881.41l-41.688.012-63.525.029-28.317.024c-5.896.009-12.003-.253-17.865.413l-.299-.739c.784-3.507.491-7.188.488-10.758l.005-15.326.108-63.933-.061-22.293c.055-3.038-.037-6.128.311-9.149z"/><path fill="#f4efec" d="M239.834 241.627c3.545-4.426 7.889-7.072 13.598-7.745 4.282-.504 8.918-.212 13.243-.217l23.754-.063 42.354-.091c7.298.003 15.186-.58 22.398.367a20.839 20.839 0 0 1 10.455 4.468c4.419 3.573 6.829 8.28 7.84 13.797l.254 2.411c.072 2.189.126 4.301-.104 6.481l-.058.587c-.342 3.243-1.288 6.394-2.837 9.263-2.057 5.023-5.319 9.888-8.296 14.416l-7.303 11.623c-9.258 15.383-18.105 31.255-25.716 47.524l-2.952 6.459c-.25.56-.833 1.479-.878 2.045-1.072 2.326-1.929 4.944-3.171 7.157l-5.315 13.658c-1.628 2.913-2.598 6.527-3.695 9.686l-7.521 25.266c-1.697 6.201-3.103 12.266-5.666 18.192l-1.39-.299-4.066 2.679c.77 1.015.726 1.816 1.42 2.841-1.515 1.09-3.068 2.419-4.747 3.243-1.484.548-2.952 1.134-4.495 1.494-4.482.09-8.898.021-12.885-2.276-5.4-3.112-8.617-7.955-10.2-13.872.199-.642.063-1.814.081-2.508.054-2.069-.042-4.524.521-6.523.173-3.199 1.314-6.491 2.17-9.564.956-3.433 1.786-6.86 2.964-10.23l5.146-16.667.47-1.309c6.965-19.046 14.718-38.059 24.787-55.706 1.791-3.139 3.372-6.476 5.476-9.42l2.651-4.632c.484-.361.992-1.509 1.318-2.056l2.982-4.866 13.284-20.353c-1.645-1.136-55.446-.28-62.202-.3-3.879-.012-8.582.403-12.384-.223a21.187 21.187 0 0 1-5.77-1.85c-4.915-2.433-7.903-7.407-9.591-12.427-.231-2.49-.507-4.715-.465-7.253l.007-2.258.05-.378c.741-2.548 1.414-4.922 2.572-7.325.525-1.156 1.221-2.184 1.912-3.246z"/><path fill="#bdafb1" d="M237.922 244.873c.525-1.156 1.221-2.184 1.912-3.246.133.258.536.841.566 1.098.202 1.692-.601 4.742-.94 6.471-.351-1.568-.622-2.964-1.538-4.323zm84.493 115.236 12.754-31.056 7.99-13.978 23.949-38.376 3.623-5.814c-2.057 5.023-5.319 9.888-8.296 14.416l-7.303 11.623c-24.705 41.245-29.594 57.725-32.717 63.185z"/><defs><linearGradient id="r" x1="273.714" x2="281.082" y1="433.585" y2="421.271" gradientUnits="userSpaceOnUse"><stop offset="0" stop-color="#8D6C6F"/><stop offset="1" stop-color="#B18588"/></linearGradient></defs><path fill="url(#r)" d="M263.855 420.721c.199-.642.063-1.814.081-2.508.054-2.069-.042-4.524.521-6.523l.066.405c.08.596.062 1.125.04 1.723.396.764 1.065.961 1.786 1.349.508.274.317.134.7.556.034.939-.027 1.933.338 2.813 1.075 5.078 2.739 8.652 7.245 11.544 3.746 2.404 8.148 3.163 12.521 2.233 2.535-.54 5.262-1.941 7.609-3.022 1.133 1.012.692 1.71 1.385 2.801l.044.24c-1.514 1.09-3.077 2.219-4.756 3.043-1.484.548-2.952 1.134-4.495 1.494-4.482.09-8.898.021-12.885-2.276-5.4-3.112-8.617-7.955-10.2-13.872Z"/><path fill="#bdafb1" d="M305.47 308.794c-.434 2.15-1.206 3.743-2.403 5.589-.586.903-1.006 1.944-1.458 2.92.215.397.075.202.445.568-1.584 3.679-4.205 7.026-5.064 11.008-.386 1.791-1.526 3.301-2.246 4.959l-7.978 18.1c-3.308 7.834-6.03 15.969-8.682 24.045l-4.229 12.64-4.957 17.9c-.029.105-.019.244-.107.307-.855 3.931-1.566 7.658-1.404 11.706-.365-.88-.304-1.874-.338-2.813-.969-1.067-1.874-.724-2.486-1.905.068-.716-.01-1.422-.106-2.128.173-3.199 1.314-6.491 2.17-9.564.956-3.433 1.786-6.86 2.964-10.23 10.857-35.163 20.108-55.638 30.403-73.682 1.791-3.139 3.372-6.476 5.476-9.42z"/><path fill="#A89295" d="M264.457 411.69c.173-3.199 1.314-6.491 2.17-9.564.956-3.433 1.786-6.86 2.964-10.23.415 2.806-1.324 6.121-1.869 8.885-.275 1.392-2.167 5.796-1.561 6.886l.278.398c.366.581.382.94.454 1.605l.514.634.366-1.32.032-.398c.066-.725-.02-.101.261-.92l.293-1.465.275.002.157.627c-.855 3.931-1.566 7.658-1.404 11.706-.365-.88-.304-1.874-.338-2.813-.383-.422-.192-.282-.7-.556-.721-.388-1.39-.585-1.786-1.349.022-.598.04-1.127-.04-1.723l-.066-.405Z"/><defs><linearGradient id="s" x1="278.795" x2="283.048" y1="280.018" y2="252.816" gradientUnits="userSpaceOnUse"><stop offset="0" stop-color="#846E74"/><stop offset="1" stop-color="#ADA5A8"/></linearGradient></defs><path fill="url(#s)" d="M235.35 252.198c.741-2.548 1.414-4.922 2.572-7.325.916 1.359 1.187 2.755 1.538 4.323-1.138 6.162-1.779 10.892 2.067 16.328 2.264 3.201 5.982 6.092 9.906 6.755 2.963.5 6.232.388 9.234.412l15.224-.019 38.69-.032 15.987.201c-1.774.888-2.986 1.349-4.075 3.082-.228.363-.492.657-.788.964-1.645-1.136-55.446-.28-62.202-.3-3.879-.012-8.582.403-12.384-.223a21.187 21.187 0 0 1-5.77-1.85c-4.915-2.433-7.903-7.407-9.591-12.427-.231-2.49-.507-4.715-.465-7.253l.007-2.258.05-.378Z"/></svg>