<svg xmlns="http://www.w3.org/2000/svg" viewBox="0 0 5880 4000"><style>.st1{fill:#52abe4}.st6{fill:#fff}.st7{fill:#c4d9f5}.st11{fill:#306485}.st12{fill:#245675}.st13{fill:#427696}.st14{fill:#80a2d0}.st15{fill:#0e354d}.st17{fill:#3a7396}.st20{fill:#01101a}.st24{fill:#91a80d}.st30{fill:#485403}.st31{fill:#728508}.st33{fill:#fff;fill-opacity:.302}</style><linearGradient id="gradient" x1="23377.705" x2="23377.705" y1="59011.422" y2="-82099.563" gradientTransform="matrix(.02835 0 0 -.02835 2277.325 1672.765)" gradientUnits="userSpaceOnUse"><stop offset="0" style="stop-color:#138dda"/><stop offset="1" style="stop-color:#fff"/></linearGradient><path d="M0 0h5880v4000H0z" style="fill:url(#gradient)"/><path d="M0 661.8h5880v25.4H0z" class="st1"/><path d="M0 1095.7h5880v25.4H0z" style="fill:#6db8e8"/><path d="M0 115.7h5880v25.4H0z" style="fill:#2c99de"/><path d="m3026.8 311.5 1426.6-5.3 1426.6-5.3V322l-1426.6-5.2z" style="fill:#43a4e2"/><path d="M4667.3 567.3 2333.6 555 0 542.6v49.3l2333.6-12.3z" class="st1"/><path d="m1212.7 874.6 2333.7-12.4L5880 849.9v49.3l-2333.6-12.3z" style="fill:#5fb2e6"/><path d="m3885.9 506-198.3-26.4c-5.3-41.5-38.8-71.9-83.9-71.9-12.3 0-24.3 2.3-35.8 6.4-23.6-58.3-79.9-97.7-151.3-97.7-67.4 0-131.8 35.1-173.4 88.1-13.4-6.8-28.9-10.5-45.9-10.5-21.2 0-41.9 5.9-60.3 16.1-24.1-47.2-73-78.4-133.9-78.4-63.9 0-125 34.4-163.1 85.7-11.9-6.1-25.7-9.5-40.8-9.5-45.1 0-87.7 30.4-105.5 71.9L2487.4 506h1398.5zM5549.4 753.2l-79.4-11.4c-1.8-22.5-19.4-39.2-43.5-39.2-5.3 0-10.5.8-15.5 2.3-11.3-16.1-30.2-26.3-53-26.3-12.6 0-25 3.1-36.2 8.7-16.2-28.5-46.9-47-84.7-47-31.2 0-61.4 12.7-85 33.2-18.2-24.3-47.6-39.7-83-39.7-43.5 0-85 23.2-111.2 57.9-11.3-9.5-26.3-15.1-43.4-15.1-38.5 0-74.6 28.3-85.6 65.3l-82.4 11.4h802.9zM1228.5 966l-90.9-17.6c-2-41-33.6-71.9-77-71.9-34.3 0-67 19.3-86.3 47.6-9.5-12.5-24.7-20.3-42.9-20.3-16.9 0-33.3 6.8-46.2 17.7-10.8-48.4-52.2-82.9-106.9-82.9-51.4 0-100.3 30.5-127 74.3-6.1-2.6-13.1-4-20.5-4-25.3 0-49.1 16.4-60 39.2L473.7 966h754.8zM1171.8 380.7l38.4-5.5c.9-10.9 9.4-19 21-19 2.6 0 5.1.4 7.5 1.1 5.5-7.8 14.6-12.7 25.6-12.7 6.1 0 12.1 1.5 17.5 4.2 7.9-13.8 22.7-22.7 40.9-22.7 15.1 0 29.7 6.1 41.1 16 8.8-11.8 23-19.2 40.1-19.2 21 0 41.1 11.2 53.7 28 5.5-4.6 12.7-7.3 21-7.3 18.6 0 36 13.7 41.4 31.6l39.8 5.5h-388z" class="st6"/><path d="M3574.2 1717.4 4275 1013l1526.8 1138-932.9 1492.8-887.7 45.7z" class="st7"/><path d="m4275 1013 1526.8 1138-446.7 725.5z" class="st6"/><path d="m0 1959.9 1119.8-873.8L2686.2 2215l-1513 1750.5L0 3950.3z" class="st7"/><path d="m0 1959.9 69-53.9 10.8 1.4L640 1710.6l21.2 144.6 395.1-105.8 477 526.7 508 685-183.5 212.3L0 3023z" style="fill:#588eb0"/><path d="M1119.8 1086.1 2686.2 2215l-837.5 969zM4334.6 1115.7l-104.8 129.2 158.3-36.8 125.7 66.8-28.3 101.3-209.9 149.2 266.6-51.3 148 16 5.3 114.6-150 141.1 218.8-56.4L4789 1483l-259.4-239.9z" class="st6"/><path d="m3831.1 1745.8 305.2-430.3-19.4 215.1 72.3-12.3 114.5 315.1 164.2-212.8 11.5 417.4z" style="fill:#e3efff"/><path d="m5110 1684.1-282.2-153.4-12.4 63.5-125.2-104.1 160.5 322.8zM1858.1 1688.5l-334.3-221.3 51.1 98.7-225.8-172.8 315.8 538z" class="st7"/><path d="m1159.5 1200.3-182.5 116 211.9-31.1 63.2 78.8 2 108.7-129 67.7 152-1.4 75.6 73.7-27.2 65.4-115.7 68.6 174.6-3.5 17.7-116.4-181.7-391.6zM640 1710.6l370.5-249.6-349.3 394.2z" class="st6"/><path d="M640 1710.6 319 2829.8l591.2-439.2-249-301.7v-233.7z" style="fill:#9dbee8"/><path d="M1100.4 2227 961 1921.9 782.8 2093l130.5 1.8 5.3 236.4 181.8-104.2zM0 2114.3l199-144.8-61.7 128.8L416 1937.7l-299 427.7 132.7 72.1L0 2623.6v-232.7l93.2-174.5L0 2285.7v-171.4z" class="st11"/><path d="M570.1 2495.4 2832 706.5l2404.4 1736.8-1387.6 1054.5-2915.5-340.3z" class="st12"/><path d="m2832 706.5 2404.4 1736.8-855 1116.7-947-1746.1z" class="st13"/><path d="m4383.5 2775.8-399.3-676.1 225.9 72.7-399.7-414.1 55.1-107.2 543.2 454.9 261.4 316.3z" class="st12"/><path d="m1051.5 2114.7 1081.8-474 83.1 201.5 557.9-275.8-2.7 205.6 309.1-91.7 353.7 133.6L2832 701.2z" class="st14"/><path d="m3495.8 1927 50.2 364.5-215.2 187-120 511.5-620.9 169.3 402.2-303.4-409.2-187 232.8-441-388.1 109.4 109.4-398.6-592.7 730.2 405.7-81.1-451.6 331.6 179.9-14.1-702.1 333.3h2830.9L3495.8 1927zm-580.3 230.5 271.7-187 88.2 363.4-381 331.6 232.8-331.6-14.1-225.8-197.6 49.4zm-1308.1 846.7 105.8-246.9-303.4-194 366.9-448-448.1 222.3 130.5-211.7-733.8 419.8 557.4-91.7-611.1 460.7 935.8 89.5z" class="st15"/><path d="m3434.4 1813.9 32.4-216.4 343.6 160.8 55.1-107.2 646.5 269L2832 701.2z" class="st6"/><path d="m3836.3 2120.5-326.4 314 298.1-79.4 67.3 130.5-136.1 146.4 344-63.5z" class="st13"/><path d="m2133.3 1640.7 416-478-45.9 137.6 257.5-275.2-296.2 613.9-35.3-183.4-213 386.7-83.1-201.6zm641-74.3.9-357.8 91.7 349.2 63.5-165.8 150.3 288.2-309.1 91.8 2.7-205.6zM2889.1 806.7l-151.8 124.9 245.2-47.6 128.7 164.1-188.7 102.3L3240 1138l77.6 178.2-222.2 111.1 345.7 14.1 40.6-142.9-545.1-485z" class="st6"/><path d="m3865.5 1651.1-590.2-461.9 535.1 569.1z" class="st14"/><path d="m3080.7 1680.3 138.2 214.5-447.3-122.8 309.1-91.7zm-947.4-39.6-286.9 818.4 369.9-617-83-201.4z" class="st13"/><path d="M5880 1811v2189H3125.1l-72.3-589.3 2244.8-2160z" style="fill:#1a4b69"/><path d="m3446.6 3238.7 748.7-652.5-49.4 158.8 645.6-321-264.6-60 370.4-500.9 218.7 197.6 419.9-85.8 89.3 271.4-893.7 992.5H4089l593.1-502.6-885.5 502.6h-350v-.1zm1655-619.4 283.5-272.1-673.8 234.6 254-17.6-237.5 321.5 317.9 4.1 55.9-270.5z" class="st15"/><path d="M5880 3020.1V1811l-582.4-560.3z" class="st17"/><path d="M5880 2271.2V4000H3528.8l-38.6-232.5 2244.9-1599.6z" style="fill:#052336"/><path d="M3069.5 4000H0V2623.6l611.4-455.7z" class="st11"/><path d="m1265.2 2655.2 241.5 301.3-613.9-155.2-289.3 148.2-423.4-218.7L0 2829.5v409.2h2048.1z" style="fill:#06283d"/><path d="m1687.7 3238.7-462.2-190.4-195.3 120.5L333 3009.5 0 3238.7zM5880 2854.3l-8.9-14.1-97-141.7-317.6 360.5-799 179.7H5880z" class="st20"/><path d="m611.4 2167.9 159 190.8-45.8 42.3 97.2 7.7 165.6 159.9-178.2 28.2 284 64.4 54.7 45.4-255.1 94.7 613.9 155.2-241.5-301.3z" style="fill:#6990c2"/><path d="m180.1 2730.8 312.5 61.8L288 2619.7 449.5 2403l126 33.3-87.6-84.8 123.5-183.6L0 2623.6v205.9z" style="fill:#174663"/><path d="M0 3244.5v-5.8l367.6-96.5 744.4 71.1 409-41.6 96 42 339.8-41.3 65.5 25.9 292.8-33.6 938.9 56.9 288.6-65.8 584.7 54.3 240.6-67.9 484.9 55.8 644.5-20.9 382.7 61.6v5.8z" style="fill:#cfe83f"/><path d="m813.6 3033.3 14.2 64.8-15.7 2.2 16.9 3.5 9.1 41.6.9 4.5h-26.5l28.2 7.6 12.6 57.8-37.4 1.5 39.4 7.4 7.3 33.4h-97.9l7.2-33.3 32.1-19.4-29.5 7.8 13.8-63.3 26.8-16.1-24.2 4.1 12.8-58.8 7.5-4.6-6.7.8zM1439.5 3001.1l16 73.3-17.7 2.5 19.1 4 10.3 47 1 5h-29.9l31.8 8.6 14.3 65.4-42.3 1.6 44.5 8.4 8.2 37.8h-110.6l8.2-37.7 36.3-21.9-33.4 8.8 15.6-71.6 30.2-18.1-27.3 4.6 14.5-66.4 8.5-5.2-7.5.9z" class="st24"/><path d="m768.5 3074.6 12.2 55.7-13.5 1.8 14.5 3 7.8 35.7.9 3.8h-22.8l24.2 6.6 10.8 49.6-32.1 1.2 33.8 6.3 6.2 28.7h-83.9l6.2-28.6 27.5-16.6-25.3 6.7 11.8-54.3 23-13.8-20.7 3.5 11-50.4 6.4-3.9-5.7.7zM227.6 3034.9l14.2 64.9-15.7 2.2 16.9 3.5 9.1 41.6.9 4.5h-26.5l28.2 7.6 12.6 57.8-37.4 1.5 39.3 7.4 7.3 33.4h-97.9l7.3-33.3 32.1-19.4-29.6 7.8 13.9-63.3L229 3135l-24.1 4.1 12.8-58.8 7.5-4.6-6.7.8zM2369.5 3026.2l14.1 64.9-15.7 2.1 17 3.6 9 41.6 1 4.4h-26.5l28.2 7.7 12.6 57.8-37.4 1.4 39.3 7.4 7.3 33.5h-97.9l7.3-33.3 32.1-19.4-29.6 7.7 13.8-63.3 26.8-16-24.2 4 12.9-58.7 7.5-4.6-6.7.8z" class="st24"/><path d="m2427.2 3084.1 11.3 51.5-12.5 1.7 13.5 2.8 7.2 33 .7 3.5h-21l22.3 6.1 10 45.8-29.6 1.2 31.2 5.8 5.8 26.6H2388.4l5.8-26.5 25.5-15.3-23.5 6.1 11-50.2 21.2-12.7-19.2 3.2 10.2-46.6 6-3.7-5.3.7zM3165.6 3028.8l14.2 64.9-15.7 2.2 16.9 3.5 9.1 41.6.9 4.4h-26.5l28.2 7.7 12.6 57.8-37.4 1.5 39.3 7.4 7.3 33.4h-97.9l7.3-33.3 32.1-19.4-29.6 7.8 13.9-63.3 26.7-16.1-24.1 4.1 12.8-58.8 7.5-4.6-6.7.8zM3001.1 3072.2l11.2 51.4-12.4 1.8 13.4 2.7 7.2 33.1.8 3.5h-21.1l22.4 6 10 45.9-29.7 1.1 31.2 5.9 5.8 26.5h-77.6l5.8-26.4 25.4-15.4-23.4 6.2 10.9-50.2 21.3-12.7-19.2 3.2 10.2-46.6 5.9-3.7-5.3.7z" class="st24"/><path d="M0 3238.7h5880V4000H0z" style="fill:#a7bf1c"/><path d="M5346.1 1397.8 5109 1628.5l276.1-112.1 157.9 101.5-101.7 69.2-194.7 121.3 230.6-12.2 273.9 1.6-261-282.2z" class="st17"/><path d="m5297.6 1250.7 453.5 547.1-218.7-125.3 299 351.1-105-188.8L5880 2000v-190.7z" style="fill:#719ed9"/><path d="m5580.6 2110.5-137.3 122.1 171.8-17.3 82.3-85z" class="st17"/><path d="m5022.2 1515.7 323.9-117.9-48.5-147.4z" class="st14"/><path d="m5346.1 1397.8 54.1-15.2 126.4 88.4-229-220.6z" class="st6"/><path d="M5880 3362.6 0 3489.6V4000h5880z" class="st24"/><path d="M5880 3497.9 0 3905.9v94.1h5880z" style="fill:#809603"/><path d="m2180.4 3442.5 991.7 243.3 267.9-18.6-1178.4-226.4z" style="fill:#decc66"/><path d="M4244.9 3611.3 3598.6 4000H2940l864.3-358.1z" style="fill:#d1bb3d"/><path d="m424.9 3022.9 29.5 135.1-32.7 4.5 35.3 7.3 18.9 86.7 2 9.2h-55.3l58.7 15.9 26.3 120.4-77.9 3 81.9 15.4 15.2 69.7H323l15.1-69.4 66.9-40.4-61.6 16.2 28.8-131.8 55.7-33.4-50.3 8.4 26.7-122.3 15.7-9.6-14 1.7z" class="st30"/><path d="m229 3619.8 86.1-37.5-30.7-1.2 38.3-2.1 55.2-24.1 5.9-2.5h-55.3l65.4-4.4 76.8-33.5-76.7-.8 88.4-4.3 44.4-19.3H323l-14 19.2 50 11.3-54.8-4.5-26.6 36.6 41.8 9.2-46.8-2.3-24.6 34 11.7 2.6-13.3-.4z" class="st31"/><path d="m614.5 2938.9 35.6 163.2-39.4 5.4 42.5 8.8 22.9 104.7 2.4 11.1h-66.7l70.9 19.3 31.7 145.4-94.1 3.6 99 18.6 18.3 84.1H491.4l18.3-83.8 80.8-48.7-74.4 19.5 34.7-159.2 67.4-40.3-60.8 10.2 32.2-147.8 19-11.6-16.9 2z" class="st30"/><path d="m377.9 3659.9 104-45.4-37.1-1.5 46.2-2.4 66.8-29.1 7-3.1h-66.7l79-5.3 92.7-40.4-92.6-1 106.8-5.2 53.6-23.4H491.4l-16.8 23.3 60.3 13.6-66.2-5.5-32 44.3 50.4 11.2-56.5-2.9-29.7 41.1 14.1 3.2-16.1-.6z" class="st31"/><path d="m1145.8 2667.1 58.2 266.8-64.4 8.8 69.5 14.5 37.3 171.1 4 18.2h-109.1l116 31.4 51.8 237.8-153.9 5.9 161.9 30.4 30 137.6H944.6l29.9-137.1 132-79.6-121.6 31.9 56.8-260.4 110.1-65.8-99.4 16.7 52.7-241.7 31-18.8-27.6 3.2z" class="st30"/><path d="m759 3845.8 170.1-74.1-60.8-2.5 75.6-4 109.1-47.5 11.6-5.1H955.5l129.2-8.7 151.5-66-151.4-1.7 174.6-8.4 87.7-38.2H944.6l-27.6 38 98.6 22.1-108.2-8.8-52.4 72.3 82.5 18.3-92.4-4.7-48.6 67.1 23.1 5.3-26.2-.9z" class="st31"/><path d="m1834.1 2998.6 30.7 140.8-34 4.7 36.7 7.6 19.7 90.3 2.1 9.6h-57.5l61.1 16.6 27.4 125.4-81.2 3.2 85.4 16 15.8 72.6H1728l15.7-72.3 69.7-42.1-64.2 16.9 30-137.4 58.1-34.8-52.4 8.9 27.8-127.5 16.3-10-14.5 1.7z" class="st30"/><path d="m1630 3620.5 89.8-39.1-32.1-1.3 39.9-2.1 57.6-25.1 6.1-2.6h-57.6l68.2-4.6 79.9-34.9-79.8-.8 92.1-4.5 46.2-20.1H1728l-14.6 20 52 11.7-57.1-4.7-27.6 38.2 43.5 9.6-48.7-2.4-25.7 35.4 12.2 2.8-13.8-.5z" class="st31"/><path d="m3737 2903.1 34.8 159.3-38.5 5.3 41.5 8.6 22.3 102.2 2.4 10.9h-65.2l69.3 18.8 30.9 141.9-91.9 3.5 96.7 18.2 17.9 82.1h-240.3l17.8-81.8 78.8-47.6-72.6 19.1 33.9-155.5 65.8-39.3-59.3 10 31.4-144.3 18.5-11.3-16.5 2z" class="st30"/><path d="m3506.1 3606.9 101.5-44.3-36.3-1.4 45.2-2.4 65.1-28.4 6.9-3h-65.1l77.1-5.2 90.5-39.5-90.4-.9 104.2-5.1 52.4-22.8h-240.3l-16.5 22.7 58.9 13.2-64.6-5.3-31.3 43.2 49.2 10.9-55.1-2.7-29 40 13.7 3.2-15.6-.6z" class="st31"/><path d="m4789.1 3017.7 25.3 116-28 3.9 30.2 6.3 16.2 74.4 1.7 7.9h-47.4l50.4 13.6 22.6 103.4-66.9 2.6 70.3 13.2 13.1 59.8h-175l13-59.6 57.4-34.6-52.9 13.9 24.7-113.2 47.9-28.7-43.2 7.3 22.9-105 13.4-8.3-11.9 1.5z" class="st30"/><path d="m4620.9 3530.2 73.9-32.3-26.4-1 32.9-1.8 47.4-20.6 5.1-2.2h-47.5l56.2-3.8 65.9-28.7-65.8-.8 75.8-3.6 38.2-16.6h-175l-12 16.5 42.9 9.6-47.1-3.8-22.7 31.4 35.8 8-40.1-2-21.2 29.1 10 2.3-11.3-.4z" class="st31"/><path d="m4625.7 2919.5 32.2 147.3-35.6 4.9 38.4 8 20.6 94.5 2.2 10h-60.3l64.1 17.4 28.6 131.2-85 3.3 89.4 16.8 16.5 75.9h-222.2l16.5-75.6 72.9-44-67.1 17.6 31.3-143.7 60.8-36.4-54.8 9.2 29.1-133.3 17.1-10.5-15.3 1.8z" class="st30"/><path d="m4412.2 3570.3 93.9-40.9-33.5-1.4 41.7-2.2 60.2-26.2 6.4-2.8h-60.2l71.3-4.9 83.6-36.4-83.5-.9 96.3-4.7 48.4-21.1h-222.2l-15.2 21 54.5 12.3-59.8-4.9-28.9 39.9 45.5 10.1-51-2.6-26.8 37.1 12.7 2.9-14.4-.5z" class="st31"/><path d="m5657 2984.2 25.3 116-28.1 3.9 30.3 6.2 16.2 74.4 1.7 7.9H5655l50.4 13.7 22.6 103.4-66.9 2.6 70.3 13.2 13 59.8h-174.9l13-59.6 57.4-34.6-52.9 13.9 24.7-113.2 47.8-28.7-43.1 7.3 22.9-105.1 13.4-8.2-12 1.5z" class="st30"/><path d="m5488.8 3496.6 73.9-32.2-26.4-1 32.9-1.8 47.4-20.7 5.1-2.1h-47.5l56.2-3.8 65.9-28.7-65.9-.8 75.9-3.6 38.1-16.6h-174.9l-12 16.5 42.9 9.6-47.1-3.8-22.8 31.4 35.9 8-40.2-2.1-21.1 29.2 10 2.3-11.4-.4z" class="st31"/><path d="M2772.4 3238.7 2389.5 3438l60.1-1.3 342.1-198z" style="fill:#e8da8e"/><path d="M1715.1 2710.9c125.1 0 226.5 101.4 226.5 226.5s-101.4 226.5-226.5 226.5-226.5-101.4-226.5-226.5 101.4-226.5 226.5-226.5z" class="st33"/><path d="M1947.3 2605c91.6 0 165.8 74.2 165.8 165.8s-74.2 165.8-165.8 165.8-165.8-74.2-165.8-165.8 74.2-165.8 165.8-165.8zM3971 3229.6c95.3-15.8 185.3 48.5 201.1 143.8 15.8 95.2-48.5 185.3-143.8 201.1-95.3 15.8-185.3-48.5-201.1-143.8-15.9-95.2 48.5-185.3 143.8-201.1z" class="st33"/><path d="M4134.3 3119.6c69.7-11.6 135.7 35.5 147.2 105.3 11.6 69.7-35.5 135.6-105.3 147.2-69.7 11.6-135.7-35.5-147.2-105.3-11.5-69.7 35.6-135.6 105.3-147.2zM366.7 1564.3c62.3 0 112.8 50.5 112.8 112.8s-50.5 112.8-112.8 112.8-112.8-50.5-112.8-112.8 50.4-112.8 112.8-112.8zM3231.2 2050.6c56.2 0 101.7 45.5 101.7 101.7s-45.5 101.7-101.7 101.7-101.7-45.5-101.7-101.7 45.6-101.7 101.7-101.7zM5275.9 1924.2c92.5 0 167.5 75 167.5 167.5s-75 167.5-167.5 167.5-167.5-75-167.5-167.5 75-167.5 167.5-167.5z" class="st33"/></svg>